<svg id="Layer_1" data-name="Layer 1" xmlns="http://www.w3.org/2000/svg" viewBox="0 0 568.33 568.33"><defs><style>.cls-1{fill:#fff;}</style></defs><path d="M321.45,589.33H294a22.55,22.55,0,0,0-2.68-.5,290.91,290.91,0,0,1-50.92-7.62A284.26,284.26,0,0,1,50.93,426.49,277,277,0,0,1,25,329.62c-.27-3.48-.78-6.94-1.19-10.42V291.75a8.38,8.38,0,0,0,.44-1.74,289.25,289.25,0,0,1,7-48.81Q55,142,135.79,79.78c44.72-34.39,95.61-53.07,151.77-57.44a264,264,0,0,1,44.19.41,283.52,283.52,0,0,1,49.48,8.59c56.09,15.28,103.38,44.78,141.34,88.81,42.93,49.79,65.48,107.88,68.8,173.41a273,273,0,0,1-8,79.55q-18.18,73.77-70.74,128.71a279.61,279.61,0,0,1-84.21,60.56,276.76,276.76,0,0,1-96.59,25.76C328.4,588.42,324.93,588.93,321.45,589.33Zm-229-283.85C92,423,187.48,519.06,304.37,520.79c119.88,1.78,216.83-94.67,218.72-211.73C525,189.87,428.87,90.16,307.79,90.14,187.31,90.11,91.87,188.5,92.48,305.48ZM80.75,384.64c-7.67,6.62-14.73,12.74-21.83,18.81-1.34,1.14-2.39,2-1.39,4.12s1.61,3.44,4.37,3.21C70.59,410,79.3,409.59,88,409c.82-.05,1.64,0,2.46,0a9.84,9.84,0,0,1-3.06,2C80.2,414.49,73,418,65.75,421.34c-1.81.83-2.37,1.73-1.35,3.56.74,1.31,1.25,2.75,2,4.38L101.16,412c-1.09-2.58-2.14-4.73-2.89-7-.58-1.71-1.54-2.15-3.25-2-5.8.4-11.61.64-17.42,1-3.21.2-6.41.53-9.62.81a8.07,8.07,0,0,1,2.19-2.55c6-5.25,12.09-10.47,18.06-15.79a3,3,0,0,0,1-2.43c-.92-2.72-2.15-5.32-3.34-8.12L49,388.46c1,2.35,1.86,4.23,2.85,6.48ZM437.25,70.52,416.44,103.3l5.91,3.74,15.87-25.17c0,1.59,0,2.2,0,2.81-.2,9.86-.42,19.72-.54,29.59a4.25,4.25,0,0,0,.93,3,51,51,0,0,0,5.66,3.73c7-11,13.88-21.86,20.85-32.85l-6.06-3.72-14.51,23.42c0-9.84,0-19.86-.05-29.89a5.22,5.22,0,0,0-1.19-3.55A45.44,45.44,0,0,0,437.25,70.52Zm-88,461.59c-5.47,1.12-10.93,2.27-16.41,3.35-1.92.38-2.13,1.53-1.84,3.19q2.85,16.4,5.62,32.81c.31,1.83,1.18,2.53,3,2.15,5.75-1.24,11.74-1.86,17.21-3.87,9.8-3.6,13.88-12.1,11.81-22.6C366.76,537.72,360,532.66,349.27,532.11ZM541.57,437c0-10.57-10-20-21.35-20-10.05,0-18.89,9.3-18.94,20s9.9,20.13,21.21,20.27C532.63,457.34,541.53,447.9,541.57,437Zm-242-359.85c12.07,0,19.83-7.76,19.87-19.88s-7.5-20-19-20c-12.09,0-20,8-20.06,20.12C280.38,69.24,288,77.14,299.58,77.13ZM414.05,512c-11.27,0-20.26,8.52-20.29,19.22,0,11.64,8.58,21.26,19.06,21.3,11.23,0,20.5-8.57,20.5-19C433.32,521.66,424.64,512,414.05,512Zm107.21-40.51c-6.52-1.91-11.55-7.53-19.15-5.81.09-.88.12-1.49.21-2.09.69-4.51-.47-8.28-4.54-10.72s-8.08-1.78-11.69.86c-5.24,3.83-9.11,8.94-12.82,14.48L502,493.62l4.94-5.6-11.66-10.49c4.53-6.4,6.82-7,13.23-3.62l1.38.72c6.29,3.21,6.29,3.21,10.81-2.08A9.78,9.78,0,0,0,521.26,471.48ZM502,122.82c-3.28-8.94-14.74-16.79-23.71-16.51-14.27.46-23.52,16-16.69,28.25,3.87,6.95,10,11.49,17.16,14.95l13.45-14.28-10.67-10.08-4.09,4.43,5.51,4.72L480.39,137c-4.67,5-5.35,5-9.93-.21-5.22-5.9-5.18-12.91.11-18.8,5.1-5.69,12.19-6.59,18.38-1.78,3.22,2.5,5.78,5.84,8.87,9ZM188.16,65.92,203.6,101.1,210.42,98c-2.14-5-4.15-9.61-6.14-14.22,5.47-4,9-3.56,12.94,1.41,1.55,2,3.06,4,4.78,5.74a3.14,3.14,0,0,0,2.61.83,51.79,51.79,0,0,0,5.91-2.64c-5.33-4.57-7.5-11.91-15.17-13.39.52-.78.91-1.38,1.3-2,2.44-3.76,2.64-7.63.23-11.42s-6.1-5-10.3-4.27C199.92,59.16,194.15,62.45,188.16,65.92ZM467.39,475.09c-8.28,3.73-14.86,8.6-18.1,16.86-2.72,7-1.42,13.48,3.33,19.24,4.48,5.42,10.06,8.34,17.24,7,9.13-1.69,15.07-7.88,20.31-14.91a2.33,2.33,0,0,0-.1-2.16c-3.71-4.72-7.53-9.35-11.51-14.25l-11.4,9.26c1.34,1.57,2.43,2.85,3.58,4.18l5.71-4.37c1.84,2.26,3.49,4.13,4.93,6.15a2.78,2.78,0,0,1,.25,2.4c-4,6.82-14,8.82-20.2,4.16-8.08-6-8.59-15.79-.95-22.37,2.7-2.32,5.92-4.05,9-6.15C468.9,478.68,468.22,477.08,467.39,475.09ZM80.88,206.28a8.17,8.17,0,0,1-.36-1c-.79-5.43-3.22-8.43-7.64-9.44-4.58-1.05-8.83.45-11.32,5.1-2.9,5.41-5,11.24-7.64,17.2l36.23,14.52,2.78-6.94-14.29-5.8c1.08-6.71,3.6-8.73,9.88-8.15.93.09,1.86.21,2.78.35,7,1.06,7,1.06,9.31-5.5a6,6,0,0,0,.08-1.17C94,205.61,87.37,202.23,80.88,206.28ZM219.64,540.86c7.18-1.59,10-4,10.7-9.09.7-4.9-1.69-8.93-7.74-11.83A114.42,114.42,0,0,0,209.54,515a2.83,2.83,0,0,0-2.51,1.14q-6.66,15.92-13,32a2.86,2.86,0,0,0,1.05,2.52,33.19,33.19,0,0,0,5.07,2.05c2.07-5,4.05-9.74,6-14.44,7.47,2.11,9,4.39,7.82,11.5a34.08,34.08,0,0,0-.62,6.18,3.8,3.8,0,0,0,1.56,2.75,34.08,34.08,0,0,0,5.42,2.19C220.28,554,223.6,547.45,219.64,540.86ZM68.15,253.46c.19-.5.36-.86.46-1.24,1.52-5.87,1.52-5.87,7.31-4.56,3.85.88,4.06,1.17,3.38,5-.11.62-.27,1.22-.41,1.83C77,262.9,70.54,267.22,62.3,265.53c-8.06-1.65-12.54-8.44-10.79-16.8.69-3.3,2-6.49,3.09-10.06l-4.81-2.6c-4.23,8.43-6.33,16.8-2.91,25.69,3.07,8,9.52,11.5,17.73,12,7.56.46,13.34-2.78,16.93-9.45,3.39-6.3,4.15-13.21,3.76-20.25a2.9,2.9,0,0,0-1.65-2.15c-5.82-1.36-11.68-2.52-17.73-3.78-.91,4.32-1.74,8.27-2.58,12.21-.32,1.47,0,2.43,1.71,2.6C66.06,253,67.06,253.27,68.15,253.46Zm206,301.12a5.55,5.55,0,0,1,.79-.62c5.69-2.57,7.93-5.59,7.72-10.41s-3.15-8.24-9.05-9.75c-4.59-1.18-9.39-1.57-14.08-2.36-2.24-.38-3.1.59-3.42,2.77-.88,5.95-2,11.87-2.95,17.81-.92,5.6-1.8,11.21-2.74,17.06l7.25,1.26c.93-5.25,1.83-10.3,2.72-15.29,6.83-.28,9.71,2.19,10.08,8.37.09,1.55.28,3.1.47,4.64.62,5,2.73,6.32,8.26,5C277.32,567,279.6,559.86,274.11,554.58Zm243.5-149.7c7.88,3.11,15.24,6.18,22.75,8.88a19.06,19.06,0,0,0,7.92,1.05c6.77-.64,11.35-5.75,13.07-13.88,1.46-6.9-.73-12.79-7.23-16-7.85-3.88-16.14-6.89-24.43-10.35-1.05,2.6-1.92,4.77-2.86,7.12,4,1.61,7.76,3.07,11.47,4.64,4.57,1.94,9.28,3.66,13.6,6.07,3.76,2.09,4.61,5.81,3.12,9.72s-4.36,5.77-8.78,5.21a24.07,24.07,0,0,1-5.67-1.54c-6.65-2.56-13.25-5.23-20.17-8C519.45,400.21,518.6,402.38,517.61,404.88Zm-324,101.46c-3.8,6.19-7.39,12.13-11.08,18a27.47,27.47,0,0,1-3.93,5.19c-3.14,3.08-6.62,3.3-10.2,1s-4.91-5.76-3.23-9.73a88.09,88.09,0,0,1,5.65-10.35c2.56-4.35,5.24-8.63,8-13.16l-6.59-4c-4.62,7.88-9.49,15.28-13.4,23.15-3.69,7.43-1.26,13.91,5.79,18.5,7.69,5,15.46,4.91,20.48-1.52,5.58-7.14,10.07-15.13,15.19-23ZM121.17,171.15c5.46-5.38,5.46-5.38,1.83-11.21a10.65,10.65,0,0,1-1.59-2.66,4.38,4.38,0,0,1,.17-3.17,61.17,61.17,0,0,1,6-7.12,3.77,3.77,0,0,1,3.1-.71c2.39.66,4.62,1.89,7,2.55a3.94,3.94,0,0,0,3.12-.7,40.59,40.59,0,0,0,4-4.63c-1.28-.52-2.33-1-3.38-1.36q-14.22-5.52-28.44-11c-6.74-2.62-6.68-2.59-11.31,3.09a2.84,2.84,0,0,0-.29,3.86c1.89,3,3.64,6,5.45,9.08ZM72,438.42c2.95,6.83,2.95,6.83,9.57,5a23.63,23.63,0,0,1,3.92-1,2.89,2.89,0,0,1,2.29.73c2.17,3.15,5.25,6.24,5.82,9.72.36,2.16-3.19,4.95-5,7.46-.25.34-.63.64-.72,1a2.7,2.7,0,0,0,0,1.71c1.15,1.89,2.44,3.71,3.87,5.84l24.91-32.68c-1.35-2.07-2.66-3.82-3.7-5.73s-2.22-2.28-4.31-1.7c-6.89,1.93-13.84,3.61-20.76,5.41C82.62,435.59,77.34,437,72,438.42ZM408.65,99.09a14.28,14.28,0,0,0,.55-2.34c.47-10.56,1-21.13,1.32-31.7.24-7.15.13-7.09-6.61-9.66a2.76,2.76,0,0,0-3.68,1c-2.21,2.75-4.57,5.38-6.86,8.06l-18,21c6.2,3.93,6.38,3.91,10.67-1.21a12.47,12.47,0,0,0,1.17-1.46c1.53-2.5,3.34-3.21,6.14-1.67,2.62,1.43,6.66,1.65,8,3.73s.14,5.94.25,9c0,1,.46,2.4,1.18,2.81A40.6,40.6,0,0,0,408.65,99.09ZM46.3,377.76c1.2-.69,2.19-1.23,3.15-1.82l26.13-15.81c5.75-3.48,5.63-3.44,4.38-10-.46-2.44-1.54-3.15-3.89-3.38-7.85-.79-15.68-1.85-23.52-2.79l-13.9-1.64a38.89,38.89,0,0,1,.84,4.63c.15,2.33,1.33,3.14,3.58,3.32,8.49.68,8.25.8,10.43,9.15.94,3.59.18,5.31-3,7.08C44,370,44.11,370.24,46.3,377.76ZM288.81,574.45c7.32,1.34,7.36,1.32,9.31-4.51,2-6,2-6,8.46-6s6.55,0,8.43,5.25c2.19,6.09,2.19,6.09,8.65,5.74a7.42,7.42,0,0,0,1.18-.25c-.34-1.11-.62-2.18-1-3.23q-5-14.43-9.91-28.85c-2.32-6.78-2.31-6.71-9.47-6.54a3.06,3.06,0,0,0-3.3,2.5c-1.37,4.25-2.94,8.43-4.4,12.65Q292.78,562.8,288.81,574.45ZM155.29,500.14l-11.81-10.26,6.43-7.52,12.71,10.69,3.66-4.46-18.36-15.67-25.24,29.6,19.11,16.31,3.73-4.43L132.28,503l7.39-8.57,11.86,10C152.76,503,153.89,501.73,155.29,500.14ZM555.55,203.08a6.48,6.48,0,0,0-1.35.16q-16.69,6-33.37,12.09c-1.57.57-1.74,1.46-1.19,2.88,1.1,2.81,2.08,5.66,3.12,8.48,1.56,4.25,3.13,8.5,4.76,12.93l5.36-2c-2-5.62-3.9-10.94-5.86-16.46l10.64-3.85,5.48,14.7,5.25-2.1c-1.77-5-3.44-9.65-5.21-14.63l9.33-3.34c2,5.38,3.9,10.37,5.82,15.5l5.31-2.14Zm-62.31-41.69,9.05-6.79L511.8,167l4.49-3.52L507,151.09l7.91-6L525,158.28l4.59-3.48-14.52-19.34L484,158.84l15.09,20.09,4.62-3.53C500.22,170.77,496.89,166.29,493.24,161.39Zm-404,18.39-8.52-5.17,8.42-14.22-5-2.95L71.77,178.19l33.38,19.94c4.38-7.34,8.56-14.36,12.87-21.57l-5-2.94c-3.08,5.07-6,9.91-9.08,14.95l-9.67-5.81c2.7-4.63,5.23-9,7.87-13.5l-4.88-2.84ZM173.62,73.21,153.31,86.3l21,32.71,21.12-13.61-3.15-4.83-14.76,9.37-6.1-9.55,13.08-8.51-3.07-4.8-13.21,8.4-5.38-8.38,13.91-9Zm383.78,291c.29-1.27.52-2.25.73-3.24.89-4.12,1.23-8.22-.32-12.28-1.7-4.45-5.15-6.71-9.66-7.33a10.15,10.15,0,0,0-10.47,4.75c-4,6.14-4.53,13.16-5.26,20.34l37.44,8.28c.57-2.67,1-4.86,1.55-7.26l-6.92-1.61ZM327.64,75c4.89,3.4,12.15,5.17,17.27,4.4,5.75-.87,9.62-4,10.61-8.69,1.06-4.93-.86-8.81-6.12-12.17-2.1-1.34-4.36-2.43-6.41-3.83s-4.09-2.85-3-5.79,3.52-3.5,6.1-3.08c3.11.5,6.14,1.48,9.44,2.31l2.19-4.64c-5.29-3.31-12.21-4.46-17.42-3.05-4,1.09-7,3.39-8,7.52a9.52,9.52,0,0,0,3.94,10.42c1.82,1.36,3.84,2.46,5.76,3.69,1.39.9,3.12,1.56,4,2.82s1.94,3.49,1.55,4.91-2.28,2.87-3.83,3.5a8.24,8.24,0,0,1-4.89,0c-3-.81-5.81-2-9-3.16C329.22,71.52,328.46,73.18,327.64,75ZM571,264.15c1.79-6.14.22-14.08-3.51-18.53-5.31-6.34-14.32-5-17.26,2.69-1,2.49-1.23,5.23-1.84,7.84-.3,1.31-.28,2.91-1,3.85-1.21,1.48-2.9,3.34-4.53,3.5-1.45.13-4.09-1.57-4.47-2.93-1.18-4.27-1.54-8.76-2.22-13.16.19-.44-.5-.59-1.2-.71s-1.33-.38-1.83-.18c-.81.33-2.05.94-2.12,1.54-.87,7.54-.28,14.83,5.62,20.46a10.14,10.14,0,0,0,16.22-3.12,34,34,0,0,0,1.87-6.21c.58-2.3.73-4.77,1.68-6.91.57-1.29,2.25-2.84,3.5-2.9,1.42-.06,3.15,1.18,4.29,2.31a6.49,6.49,0,0,1,1.38,3.7c.3,2.62.29,5.27.41,8.07ZM106.65,485.91l24.74-21.69,8,8.94,4.38-4L123,445.66l-4.41,3.93,7.72,8.9-24.66,21.76C103.41,482.24,105,484,106.65,485.91Zm52.58-354.77c-7.34-8.37-14.45-16.46-21.67-24.68l8.77-8L142.52,94l-23.59,20.8,4,4.33,8.83-7.64,21.79,24.6Zm344.65,55.63,11.78,21.66,5.17-2.77c-2.75-5.13-5.35-10-8.05-15.07l28.92-15.75L538,168.25ZM253.16,43.41a32.59,32.59,0,0,1-3.73.59c-3.08.1-3.84,1.44-3,4.41,1,3.59,1.47,7.31,2.19,11,1.5,7.71,3,15.42,4.59,23.45l24.14-4.74c-.43-2.15-.76-3.83-1.14-5.72-3.77.73-7.21,1.45-10.67,2-7.15,1.23-5.71,2.44-7.23-5C256.53,60.93,254.92,52.38,253.16,43.41ZM391.64,561.72,380.1,524.64l-7.21,2.24c3.87,12.45,7.67,24.64,11.52,37Zm166.8-266.09a8.07,8.07,0,0,0-8.48,8,8.25,8.25,0,1,0,16.5.17A8.1,8.1,0,0,0,558.44,295.63ZM65.61,303.82a7.85,7.85,0,0,0-8.19-8.19A8.06,8.06,0,0,0,49.29,304a8.26,8.26,0,0,0,8.14,8.14A8.05,8.05,0,0,0,65.61,303.82Z" transform="translate(-23.83 -21)"/><path class="cls-1" d="M321.45,589.33c3.48-.4,6.95-.91,10.43-1.19a276.76,276.76,0,0,0,96.59-25.76,279.61,279.61,0,0,0,84.21-60.56q52.4-54.93,70.74-128.71a273,273,0,0,0,8-79.55c-3.32-65.53-25.87-123.62-68.8-173.41-38-44-85.25-73.53-141.34-88.81a283.52,283.52,0,0,0-49.48-8.59,264,264,0,0,0-44.19-.41c-56.16,4.37-107,23.05-151.77,57.44Q55,141.88,31.28,241.2a289.25,289.25,0,0,0-7,48.81,8.38,8.38,0,0,1-.44,1.74V21.05A1.28,1.28,0,0,1,24.1,21H592.17V589.33Z" transform="translate(-23.83 -21)"/><path class="cls-1" d="M23.83,319.2c.41,3.48.92,6.94,1.19,10.42a282.27,282.27,0,0,0,86.12,180.57,281.55,281.55,0,0,0,129.26,71,290.91,290.91,0,0,0,50.92,7.62,22.55,22.55,0,0,1,2.68.5H23.83Z" transform="translate(-23.83 -21)"/><path class="cls-1" d="M92.48,305.48c-.61-117,94.83-215.37,215.31-215.34,121.08,0,217.22,99.73,215.3,218.92-1.89,117.06-98.84,213.51-218.72,211.73C187.48,519.06,92,423,92.48,305.48Zm114.78,70.28V214.59c-6.49,0-12.6.09-18.72-.05-2.47,0-3.16.82-3.16,3.24q.08,89.49,0,179c0,2.47.77,3.19,3.2,3.16,9.56-.11,19.13,0,28.69,0h3.52c-.52,2.15-.89,3.76-1.29,5.35s-.93,3.2-1.2,4.83c-.75,4.53,2.33,8.2,6.72,8.11,3.24-.06,5.58-2.09,6.62-5.95,2.78-10.32,5.49-20.65,8.24-31,1.32-4.95,2.66-9.89,4.1-15.24l30.69,27.82c8.24,7.46,16.46,15,24.73,22.37a6.82,6.82,0,0,0,8.34,1c2.61-1.59,3.66-4.49,2.85-7.86-.17-.71-.35-1.41-.54-2.11q-8.57-32.18-17.15-64.35-10.83-40.61-21.69-81.21c-1.05-3.92-3.31-5.77-6.7-5.78s-5.76,2-6.76,5.75q-9.68,36.22-19.33,72.47C235,347,231.56,360,228,372.87c-.3,1.08-1.38,2.73-2.15,2.76C219.89,375.86,213.87,375.76,207.26,375.76ZM389,326.08h7a6.32,6.32,0,0,1,6.43,4.49,17.43,17.43,0,0,1,.75,5.49q.08,29.79,0,59.58v3.95h22v-3.7q0-30.57,0-61.14a34.21,34.21,0,0,0-5.39-19.21c-1-1.52-.71-2.49.15-3.87a34.57,34.57,0,0,0,5.25-18.94c-.06-16.22.16-32.44-.14-48.66a41.48,41.48,0,0,0-2.51-13.35c-5.12-13.94-19.33-21.87-32.8-18.11-4.94,1.38-9.4,4.46-14.44,6.94-2.11-2.29-4.75-5.15-7.62-8.28l-15.48,17.07c4.14,4.5,8,9,12.17,13.13a9.5,9.5,0,0,1,2.88,7.45q-.11,73-.05,146v4.79H389ZM154.11,251.84c6.64,0,12.76-.12,18.86,0,2.54.07,3.18-.85,3.16-3.24q-.15-15.43,0-30.87c0-2.44-.74-3.26-3.18-3.23-8.84.1-17.67,0-26.51,0a25,25,0,0,0-14.34,4.53c-10.15,7-14.05,17.09-14.06,29q0,59.24,0,118.48a46.24,46.24,0,0,0,1.12,9.87c2.8,12.54,13.26,22.52,25,23.19,9.84.56,19.74.16,29.61.25,1.88,0,2.27-.9,2.24-2.5-.06-3,0-6,0-9,0-25.57,0-51.14,0-76.7,0-2.39-.4-3.6-3.18-3.54-7.79.15-15.59.1-23.39,0-2.08,0-2.69.82-2.64,2.78.09,3.94,0,7.89,0,11.84v9.38l7,.34V375.6c-1.16.06-2.17.16-3.19.17-8.46.06-10.66-2.15-10.66-10.65V269.71c0-7.58,0-15.17,0-22.76,0-4,2-7.4,5.26-7.89,2.78-.43,5.69-.09,8.75-.09v12.87Zm315.55,123.5c-9.66,1.7-14-.89-13.94-10.92.22-38.57.09-77.14.1-115.71a20.05,20.05,0,0,1,.23-3.72c.58-3.11,2.28-5.53,5.49-6,2.6-.4,5.32-.08,8.29-.08,0,3.69-.11,7.11.07,10.51,0,.83,1,2.3,1.52,2.32,6.72.16,13.44.1,20.33.1V214.76c-1.37-.06-2.59-.17-3.82-.17-7.8,0-15.61.29-23.39-.06-16.78-.75-29.32,12.9-30.22,27.88-.73,12.23-.34,24.52-.35,36.79,0,29.21.22,58.43-.11,87.64-.18,16.89,11.48,34.55,33,33.12,7.15-.47,14.35-.06,21.52-.08,1.1,0,2.2-.1,3.33-.16V308.21c-9.26,0-18.28,0-27.31.1-.58,0-1.59,1.45-1.63,2.26-.18,3.84-.09,7.69-.09,11.54,0,3.29,0,6.58,0,10l7,.36Zm-131.38-48.1c.49,1.66.84,2.72,1.13,3.8,3.79,14.25,7.53,28.51,11.41,42.73a11.66,11.66,0,0,0,2.7,5.09c2.22,2.16,5.08,2.2,7.79.67s3.78-4.57,2.84-8.13Q344.56,297.84,325,224.28c-1.07-4-3.42-6.11-6.77-6.14s-5.77,2.08-6.92,6.37c-6.61,24.76-13.16,49.53-19.9,74.25a21,21,0,0,0,0,12.14c1.92,6.27,3.47,12.64,5.18,19l.6,0,8.93-33.24,21.49,22.08c-8.61,8-16.83,15.65-25,23.35-.88.83-2,2.28-1.82,3.21.87,4.43,2.16,8.77,3.46,13.75ZM308,441.49H447.35a19.09,19.09,0,0,0,3.12-.06,4.3,4.3,0,0,0,4-4.44,4.12,4.12,0,0,0-3.54-4.44,14.63,14.63,0,0,0-3.1-.24q-139.71,0-279.4,0a16,16,0,0,0-3.1.21,4.14,4.14,0,0,0-3.67,4.64c.14,2.54,1.67,3.95,4.14,4.27a21.94,21.94,0,0,0,2.81,0Zm1.94-280.55H170.78c-1.25,0-2.75-.37-3.68.19a8.41,8.41,0,0,0-3.55,3.69c-.75,2,.44,3.93,2.53,4.72a11.46,11.46,0,0,0,4,.55q139.76,0,279.51,0a13.18,13.18,0,0,0,3.38-.38,4.1,4.1,0,0,0,3.23-4.68,4,4,0,0,0-4-4c-1.24-.11-2.49-.09-3.74-.09Zm-70,78.41c.09,1.14.11,2.28.27,3.41a24,24,0,0,0,8.65,15.71,3.34,3.34,0,0,0,5-.3c1.47-1.62,1.35-3.4,0-5.07-.47-.55-1-1-1.53-1.55a17.45,17.45,0,0,1-3.56-19.07,17.83,17.83,0,0,1,16.5-10.77,17.38,17.38,0,0,1,16.18,11.17c2.75,7.35,1.17,13.8-4.29,19.46a6.55,6.55,0,0,0-1.68,4.29c0,.93,1.73,2.58,2.61,2.53a7.72,7.72,0,0,0,4.57-1.94,25.09,25.09,0,1,0-42.7-17.87Zm78.18-62.58A25,25,0,0,0,293.39,206a24.47,24.47,0,0,0,8.21,14.65c1.75,1.54,3.67,1.68,5.28,0s1.47-3.56-.16-5.27c-.65-.68-1.32-1.32-1.94-2a17.69,17.69,0,0,1,17.77-28.7,17.75,17.75,0,0,1,13.19,16c.34,5.78-1.77,10.47-5.88,14.51a5.36,5.36,0,0,0-1.27,4.07,3.72,3.72,0,0,0,2.73,2.42,7.08,7.08,0,0,0,4.29-1.89,25,25,0,0,0-17.49-42.95ZM303.78,465.23h14.51v-5.86H296V498c7.38,0,14.53,0,21.68-.08.58,0,1.53-1,1.62-1.67a24.68,24.68,0,0,0-.14-4.47H303.19c0-2.84.08-5.41,0-8-.1-2.11.59-3,2.83-2.9,3,.16,6-.06,9,.07,2,.09,2.7-.61,2.76-2.65.06-2.43-.46-3.79-3.23-3.43a29,29,0,0,1-3.73,0c-8.55,0-8.72-.2-7.41-8.91A6.07,6.07,0,0,1,303.78,465.23Zm-45.85-5.69c.29,1.11.48,2,.76,2.88,3.27,10.16,6.46,20.34,9.86,30.46,2,6,.53,5,7.18,5.22,2.08,0,3.16-.6,3.85-2.65,3.75-11.2,7.66-22.35,11.49-33.53.25-.73.37-1.51.62-2.59-1.42-.08-2.54,0-3.63-.22-3-.47-4.54.79-5.17,3.74-.51,2.42-1.44,4.76-2.18,7.13-2,6.25-3.93,12.5-6,19.2l-7.24-24.29c-1.85-6.19-1.85-6.19-8.24-5.69A11.7,11.7,0,0,0,257.93,459.54Zm93.83,31.71c-6.84,1.75-13.32,2.46-18.16-3.7-3.48-4.44-3.72-12.29-.47-17.09,4.75-7,11.62-6.43,18.84-4.41.55-1.92,1.06-3.67,1.54-5.36-3.19-2-7.79-2.61-13.46-1.88-8.37,1.08-14.53,6.86-16.32,15.33-1.94,9.17,1.24,17.69,8.17,21.8,5.2,3.09,10.88,3.12,16.62,2.36,4.7-.62,5.13-1.42,3.71-6.06A8.81,8.81,0,0,0,351.76,491.25ZM318.05,190.56a11.19,11.19,0,1,0,11.09,11.36A11.07,11.07,0,0,0,318.05,190.56Zm-52.87,37.56a11.24,11.24,0,1,0,10.92,11.59A11.14,11.14,0,0,0,265.18,228.12Z" transform="translate(-23.83 -21)"/><path class="cls-1" d="M80.75,384.64l-28.89,10.3c-1-2.25-1.81-4.13-2.85-6.48L85.89,375.9c1.19,2.8,2.42,5.4,3.34,8.12a3,3,0,0,1-1,2.43c-6,5.32-12,10.54-18.06,15.79A8.07,8.07,0,0,0,68,404.79c3.21-.28,6.41-.61,9.62-.81,5.81-.37,11.62-.61,17.42-1,1.71-.11,2.67.33,3.25,2,.75,2.26,1.8,4.41,2.89,7L66.38,429.28c-.73-1.63-1.24-3.07-2-4.38-1-1.83-.46-2.73,1.35-3.56C73,418,80.2,414.49,87.41,411a9.84,9.84,0,0,0,3.06-2c-.82,0-1.64-.05-2.46,0-8.71.55-17.42,1-26.11,1.74-2.76.23-3.42-1.21-4.37-3.21s0-3,1.39-4.12C66,397.38,73.08,391.26,80.75,384.64Z" transform="translate(-23.83 -21)"/><path class="cls-1" d="M437.25,70.52a45.44,45.44,0,0,1,6.06,3.87,5.22,5.22,0,0,1,1.19,3.55c.09,10,.05,20,.05,29.89l14.51-23.42,6.06,3.72c-7,11-13.83,21.8-20.85,32.85a51,51,0,0,1-5.66-3.73,4.25,4.25,0,0,1-.93-3c.12-9.87.34-19.73.54-29.59,0-.61,0-1.22,0-2.81L422.35,107l-5.91-3.74Z" transform="translate(-23.83 -21)"/><path class="cls-1" d="M349.27,532.11c10.76.55,17.49,5.61,19.35,15,2.07,10.5-2,19-11.81,22.6-5.47,2-11.46,2.63-17.21,3.87-1.78.38-2.65-.32-3-2.15Q333.9,555,331,538.65c-.29-1.66-.08-2.81,1.84-3.19C338.34,534.38,343.8,533.23,349.27,532.11Zm11.91,21.2c.26-8.76-4.27-14.43-12.33-15-2.42-.17-4.91.61-7.38.86-2.12.21-2.44,1.31-2.1,3.21,1.36,7.56,2.56,15.14,3.94,22.7a3,3,0,0,0,1.75,2C353.12,568.07,360.94,561.32,361.18,553.31Z" transform="translate(-23.83 -21)"/><path class="cls-1" d="M541.57,437c0,10.92-8.94,20.36-19.08,20.24-11.31-.14-21.25-9.64-21.21-20.27s8.89-20,18.94-20C531.57,417,541.61,426.41,541.57,437ZM523,449.73c5.65,0,9-2,11.07-5.84,2-3.73,1.6-7.44-.7-10.89a19.1,19.1,0,0,0-12.32-8.33c-4.34-.9-8.29.06-11.16,3.76-2.55,3.28-3.37,6.94-1.48,10.77A18.58,18.58,0,0,0,523,449.73Z" transform="translate(-23.83 -21)"/><path class="cls-1" d="M299.58,77.13c-11.55,0-19.2-7.89-19.17-19.78,0-12.17,8-20.14,20.06-20.12,11.48,0,19,8,19,20S311.65,77.12,299.58,77.13Zm12.71-20c-1.39-3.44-2.2-7.22-4.24-10.14-4.31-6.2-13.28-5.56-17.31.84-3.43,5.45-3.1,14.28.73,19.47,4.43,6,13.53,5.92,17.37-.49C310.48,64.06,311.06,60.69,312.29,57.12Z" transform="translate(-23.83 -21)"/><path class="cls-1" d="M414.05,512c10.59,0,19.27,9.67,19.27,21.48,0,10.47-9.27,19.09-20.5,19-10.48,0-19.09-9.66-19.06-21.3C393.79,520.51,402.78,512,414.05,512Zm11.8,22.54c-.53-5.53-2.69-10.9-8-14.47a10.57,10.57,0,0,0-16.63,8.32,18.26,18.26,0,0,0,6.86,15.35c3.46,2.89,7.38,3.57,11.6,1.48S425.7,539.71,425.85,534.53Z" transform="translate(-23.83 -21)"/><path class="cls-1" d="M521.26,471.48a9.78,9.78,0,0,1-.58,1.07c-4.52,5.29-4.52,5.29-10.81,2.08l-1.38-.72c-6.41-3.36-8.7-2.78-13.23,3.62L506.92,488l-4.94,5.6L473.27,468.2c3.71-5.54,7.58-10.65,12.82-14.48,3.61-2.64,7.64-3.28,11.69-.86s5.23,6.21,4.54,10.72c-.09.6-.12,1.21-.21,2.09C509.71,464,514.74,469.57,521.26,471.48Zm-29.8,2.69a89.74,89.74,0,0,0,5-7.86c1.16-2.3.15-4.45-1.65-6.16s-4.25-2.29-6.3-.95a31.67,31.67,0,0,0-5.78,5.51c-.31.34.08,1.8.58,2.28C485.74,469.27,488.29,471.4,491.46,474.17Z" transform="translate(-23.83 -21)"/><path class="cls-1" d="M502,122.82l-4.13,2.41c-3.09-3.2-5.65-6.54-8.87-9-6.19-4.81-13.28-3.91-18.38,1.78-5.29,5.89-5.33,12.9-.11,18.8,4.58,5.17,5.26,5.19,9.93.21l2.52-2.68-5.51-4.72,4.09-4.43,10.67,10.08-13.45,14.28c-7.19-3.46-13.29-8-17.16-14.95-6.83-12.26,2.42-27.79,16.69-28.25C487.21,106,498.67,113.88,502,122.82Z" transform="translate(-23.83 -21)"/><path class="cls-1" d="M188.16,65.92c6-3.47,11.76-6.76,18.42-7.83,4.2-.68,7.91.5,10.3,4.27s2.21,7.66-.23,11.42c-.39.61-.78,1.21-1.3,2,7.67,1.48,9.84,8.82,15.17,13.39a51.79,51.79,0,0,1-5.91,2.64A3.14,3.14,0,0,1,222,91c-1.72-1.79-3.23-3.79-4.78-5.74-3.95-5-7.47-5.4-12.94-1.41,2,4.61,4,9.25,6.14,14.22l-6.82,3.06ZM202,78.62c4.35-1.9,9.11-2.94,9.58-8.21a6.9,6.9,0,0,0-2.81-5.36c-4.24-2.59-7.81.39-11.69,2.34C198.7,71.15,200.27,74.72,202,78.62Z" transform="translate(-23.83 -21)"/><path class="cls-1" d="M467.39,475.09c.83,2,1.51,3.59,2.13,5.05-3.12,2.1-6.34,3.83-9,6.15-7.64,6.58-7.13,16.33.95,22.37,6.24,4.66,16.21,2.66,20.2-4.16a2.78,2.78,0,0,0-.25-2.4c-1.44-2-3.09-3.89-4.93-6.15l-5.71,4.37c-1.15-1.33-2.24-2.61-3.58-4.18l11.4-9.26c4,4.9,7.8,9.53,11.51,14.25a2.33,2.33,0,0,1,.1,2.16c-5.24,7-11.18,13.22-20.31,14.91-7.18,1.33-12.76-1.59-17.24-7-4.75-5.76-6.05-12.26-3.33-19.24C452.53,483.69,459.11,478.82,467.39,475.09Z" transform="translate(-23.83 -21)"/><path class="cls-1" d="M80.88,206.28c6.49-4.05,13.13-.67,19.81-.86a6,6,0,0,1-.08,1.17c-2.29,6.56-2.31,6.56-9.31,5.5-.92-.14-1.85-.26-2.78-.35-6.28-.58-8.8,1.44-9.88,8.15l14.29,5.8-2.78,6.94L53.92,218.11c2.6-6,4.74-11.79,7.64-17.2,2.49-4.65,6.74-6.15,11.32-5.1,4.42,1,6.85,4,7.64,9.44A8.17,8.17,0,0,0,80.88,206.28Zm-19,6.9,11.39,4.55c1.81-4.3,4.35-8.25,1.23-12.27a6.85,6.85,0,0,0-5.61-2.21C64.11,204.26,63.32,208.76,61.88,213.18Z" transform="translate(-23.83 -21)"/><path class="cls-1" d="M219.64,540.86c4,6.59.64,13.12.7,20a34.08,34.08,0,0,1-5.42-2.19,3.8,3.8,0,0,1-1.56-2.75,34.08,34.08,0,0,1,.62-6.18c1.13-7.11-.35-9.39-7.82-11.5-1.95,4.7-3.93,9.44-6,14.44a33.19,33.19,0,0,1-5.07-2.05,2.86,2.86,0,0,1-1.05-2.52q6.33-16.05,13-32a2.83,2.83,0,0,1,2.51-1.14,114.42,114.42,0,0,1,13.06,4.91c6.05,2.9,8.44,6.93,7.74,11.83C229.61,536.85,226.82,539.27,219.64,540.86ZM213,521.41c-1.71,4.24-3.2,7.91-4.9,12.13,3.19.83,5.91,1.86,8.71,2.18s4.83-1.39,5.83-4.14a5.15,5.15,0,0,0-2.23-6.48A67.25,67.25,0,0,0,213,521.41Z" transform="translate(-23.83 -21)"/><path class="cls-1" d="M68.15,253.46c-1.09-.19-2.09-.43-3.1-.53-1.7-.17-2-1.13-1.71-2.6.84-3.94,1.67-7.89,2.58-12.21,6,1.26,11.91,2.42,17.73,3.78a2.9,2.9,0,0,1,1.65,2.15c.39,7-.37,13.95-3.76,20.25-3.59,6.67-9.37,9.91-16.93,9.45-8.21-.49-14.66-4-17.73-12-3.42-8.89-1.32-17.26,2.91-25.69l4.81,2.6c-1.11,3.57-2.4,6.76-3.09,10.06-1.75,8.36,2.73,15.15,10.79,16.8,8.24,1.69,14.72-2.63,16.59-11.06.14-.61.3-1.21.41-1.83.68-3.81.47-4.1-3.38-5-5.79-1.31-5.79-1.31-7.31,4.56C68.51,252.6,68.34,253,68.15,253.46Z" transform="translate(-23.83 -21)"/><path class="cls-1" d="M274.11,554.58c5.49,5.28,3.21,12.39,5.05,18.51-5.53,1.29-7.64-.07-8.26-5-.19-1.54-.38-3.09-.47-4.64-.37-6.18-3.25-8.65-10.08-8.37-.89,5-1.79,10-2.72,15.29l-7.25-1.26c.94-5.85,1.82-11.46,2.74-17.06,1-5.94,2.07-11.86,2.95-17.81.32-2.18,1.18-3.15,3.42-2.77,4.69.79,9.49,1.18,14.08,2.36,5.9,1.51,8.85,5.06,9.05,9.75s-2,7.84-7.72,10.41A5.55,5.55,0,0,0,274.11,554.58Zm-12.95-4.75c3.31.12,6.19.55,9,.24s4.53-2.38,4.84-5.31a5.14,5.14,0,0,0-3.37-5.72,27.13,27.13,0,0,0-6.61-1.52,2.66,2.66,0,0,0-2,1.61C262.29,542.36,261.85,545.65,261.16,549.83Z" transform="translate(-23.83 -21)"/><path class="cls-1" d="M517.61,404.88c1-2.5,1.84-4.67,2.79-7.06,6.92,2.75,13.52,5.42,20.17,8a24.07,24.07,0,0,0,5.67,1.54c4.42.56,7.26-1.23,8.78-5.21s.64-7.63-3.12-9.72c-4.32-2.41-9-4.13-13.6-6.07-3.71-1.57-7.47-3-11.47-4.64.94-2.35,1.81-4.52,2.86-7.12,8.29,3.46,16.58,6.47,24.43,10.35,6.5,3.21,8.69,9.1,7.23,16-1.72,8.13-6.3,13.24-13.07,13.88a19.06,19.06,0,0,1-7.92-1.05C532.85,411.06,525.49,408,517.61,404.88Z" transform="translate(-23.83 -21)"/><path class="cls-1" d="M193.58,506.34l6.67,4.09c-5.12,7.85-9.61,15.84-15.19,23-5,6.43-12.79,6.52-20.48,1.52-7.05-4.59-9.48-11.07-5.79-18.5,3.91-7.87,8.78-15.27,13.4-23.15l6.59,4c-2.75,4.53-5.43,8.81-8,13.16a88.09,88.09,0,0,0-5.65,10.35c-1.68,4-.24,7.49,3.23,9.73s7.06,2.08,10.2-1a27.47,27.47,0,0,0,3.93-5.19C186.19,518.47,189.78,512.53,193.58,506.34Z" transform="translate(-23.83 -21)"/><path class="cls-1" d="M121.17,171.15l-14.32-24c-1.81-3-3.56-6.1-5.45-9.08a2.84,2.84,0,0,1,.29-3.86c4.63-5.68,4.57-5.71,11.31-3.09q14.22,5.52,28.44,11c1.05.4,2.1.84,3.38,1.36a40.59,40.59,0,0,1-4,4.63,3.94,3.94,0,0,1-3.12.7c-2.39-.66-4.62-1.89-7-2.55a3.77,3.77,0,0,0-3.1.71,61.17,61.17,0,0,0-6,7.12,4.38,4.38,0,0,0-.17,3.17,10.65,10.65,0,0,0,1.59,2.66C126.63,165.77,126.63,165.77,121.17,171.15ZM107.9,136.54,117.06,151l6.71-8Z" transform="translate(-23.83 -21)"/><path class="cls-1" d="M72,438.42c5.33-1.41,10.61-2.83,15.91-4.21,6.92-1.8,13.87-3.48,20.76-5.41,2.09-.58,3.28-.16,4.31,1.7s2.35,3.66,3.7,5.73L91.78,468.91c-1.43-2.13-2.72-4-3.87-5.84a2.7,2.7,0,0,1,0-1.71c.09-.37.47-.67.72-1,1.79-2.51,5.34-5.3,5-7.46-.57-3.48-3.65-6.57-5.82-9.72a2.89,2.89,0,0,0-2.29-.73,23.63,23.63,0,0,0-3.92,1C75,445.25,75,445.25,72,438.42Zm26.06,10.42,10.55-13.42-16.3,4.63Z" transform="translate(-23.83 -21)"/><path class="cls-1" d="M408.65,99.09a40.6,40.6,0,0,1-5.89-2.36c-.72-.41-1.14-1.83-1.18-2.81-.11-3.06,1.12-6.82-.25-9s-5.34-2.3-8-3.73c-2.8-1.54-4.61-.83-6.14,1.67a12.47,12.47,0,0,1-1.17,1.46c-4.29,5.12-4.47,5.14-10.67,1.21l18-21c2.29-2.68,4.65-5.31,6.86-8.06a2.76,2.76,0,0,1,3.68-1c6.74,2.57,6.85,2.51,6.61,9.66-.36,10.57-.85,21.14-1.32,31.7A14.28,14.28,0,0,1,408.65,99.09ZM393,75.33l9.78,3.82c.37-5.8.7-11.07,1.08-17.09Z" transform="translate(-23.83 -21)"/><path class="cls-1" d="M46.3,377.76c-2.19-7.52-2.3-7.73,4.18-11.29,3.2-1.77,4-3.49,3-7.08-2.18-8.35-1.94-8.47-10.43-9.15-2.25-.18-3.43-1-3.58-3.32a38.89,38.89,0,0,0-.84-4.63l13.9,1.64c7.84.94,15.67,2,23.52,2.79,2.35.23,3.43.94,3.89,3.38,1.25,6.59,1.37,6.55-4.38,10L49.45,375.94C48.49,376.53,47.5,377.07,46.3,377.76Zm10.85-26.5,2.3,10.23,14.74-8.58Z" transform="translate(-23.83 -21)"/><path class="cls-1" d="M288.81,574.45q4-11.66,8-23.23c1.46-4.22,3-8.4,4.4-12.65a3.06,3.06,0,0,1,3.3-2.5c7.16-.17,7.15-.24,9.47,6.54q4.94,14.43,9.91,28.85c.36,1,.64,2.12,1,3.23a7.42,7.42,0,0,1-1.18.25c-6.46.35-6.46.35-8.65-5.74-1.88-5.26-1.88-5.26-8.43-5.25s-6.47,0-8.46,6C296.17,575.77,296.13,575.79,288.81,574.45Zm23.07-15.86c-1.78-5.53-3.39-10.51-5.24-16.23l-5.22,16.23Z" transform="translate(-23.83 -21)"/><path class="cls-1" d="M155.29,500.14c-1.4,1.59-2.53,2.89-3.76,4.28l-11.86-10L132.28,503l13.24,11.44-3.73,4.43-19.11-16.31,25.24-29.6,18.36,15.67-3.66,4.46-12.71-10.69-6.43,7.52Z" transform="translate(-23.83 -21)"/><path class="cls-1" d="M555.55,203.08l8.09,22.25-5.31,2.14c-1.92-5.13-3.8-10.12-5.82-15.5l-9.33,3.34c1.77,5,3.44,9.64,5.21,14.63l-5.25,2.1-5.48-14.7L527,221.19c2,5.52,3.86,10.84,5.86,16.46l-5.36,2c-1.63-4.43-3.2-8.68-4.76-12.93-1-2.82-2-5.67-3.12-8.48-.55-1.42-.38-2.31,1.19-2.88q16.7-6,33.37-12.09A6.48,6.48,0,0,1,555.55,203.08Z" transform="translate(-23.83 -21)"/><path class="cls-1" d="M493.24,161.39c3.65,4.9,7,9.38,10.44,14l-4.62,3.53L484,158.84l31.09-23.38,14.52,19.34L525,158.28,514.9,145.06l-7.91,6,9.3,12.43L511.8,167l-9.51-12.44Z" transform="translate(-23.83 -21)"/><path class="cls-1" d="M89.23,179.78l8.08-13.36,4.88,2.84c-2.64,4.54-5.17,8.87-7.87,13.5l9.67,5.81c3.07-5,6-9.88,9.08-14.95l5,2.94c-4.31,7.21-8.49,14.23-12.87,21.57L71.77,178.19l12.36-20.75,5,2.95-8.42,14.22Z" transform="translate(-23.83 -21)"/><path class="cls-1" d="M173.62,73.21l3.16,4.85-13.91,9,5.38,8.38,13.21-8.4,3.07,4.8-13.08,8.51,6.1,9.55,14.76-9.37,3.15,4.83L174.34,119l-21-32.71Z" transform="translate(-23.83 -21)"/><path class="cls-1" d="M557.4,364.18l7.09,1.65,6.92,1.61c-.52,2.4-1,4.59-1.55,7.26l-37.44-8.28c.73-7.18,1.29-14.2,5.26-20.34a10.15,10.15,0,0,1,10.47-4.75c4.51.62,8,2.88,9.66,7.33,1.55,4.06,1.21,8.16.32,12.28C557.92,361.93,557.69,362.91,557.4,364.18Zm-6.18-1.29c2.38-3.42,2.67-8.65.55-11.4a6.3,6.3,0,0,0-7.21-2.4c-4.12,1.29-4.78,5.06-5.48,8.67,0,.1-.06.24,0,.3.62.86,1.1,2.22,1.9,2.45C544.34,361.49,547.81,362.13,551.22,362.89Z" transform="translate(-23.83 -21)"/><path class="cls-1" d="M327.64,75c.82-1.77,1.58-3.43,2.24-4.88,3.17,1.14,6,2.35,9,3.16a8.24,8.24,0,0,0,4.89,0c1.55-.63,3.43-2.06,3.83-3.5S347,66.22,346,64.86s-2.65-1.92-4-2.82c-1.92-1.23-3.94-2.33-5.76-3.69a9.52,9.52,0,0,1-3.94-10.42c1-4.13,4-6.43,8-7.52,5.21-1.41,12.13-.26,17.42,3.05l-2.19,4.64c-3.3-.83-6.33-1.81-9.44-2.31-2.58-.42-5.07.2-6.1,3.08s1.06,4.44,3,5.79,4.31,2.49,6.41,3.83c5.26,3.36,7.18,7.24,6.12,12.17-1,4.66-4.86,7.82-10.61,8.69C339.79,80.12,332.53,78.35,327.64,75Z" transform="translate(-23.83 -21)"/><path class="cls-1" d="M571,264.15l-5.06-.69c-.12-2.8-.11-5.45-.41-8.07a6.49,6.49,0,0,0-1.38-3.7c-1.14-1.13-2.87-2.37-4.29-2.31-1.25.06-2.93,1.61-3.5,2.9-1,2.14-1.1,4.61-1.68,6.91a34,34,0,0,1-1.87,6.21,10.14,10.14,0,0,1-16.22,3.12c-5.9-5.63-6.49-12.92-5.62-20.46.07-.6,1.31-1.21,2.12-1.54.5-.2,1.21.08,1.83.18s1.39.27,1.2.71c.68,4.4,1,8.89,2.22,13.16.38,1.36,3,3.06,4.47,2.93,1.63-.16,3.32-2,4.53-3.5.77-.94.75-2.54,1-3.85.61-2.61.89-5.35,1.84-7.84,2.94-7.69,11.95-9,17.26-2.69C571.2,250.07,572.77,258,571,264.15Z" transform="translate(-23.83 -21)"/><path class="cls-1" d="M106.65,485.91c-1.69-1.92-3.24-3.67-5-5.66l24.66-21.76-7.72-8.9,4.41-3.93,20.74,23.53-4.38,4-8-8.94Z" transform="translate(-23.83 -21)"/><path class="cls-1" d="M159.23,131.14l-5.66,5-21.79-24.6L123,119.16l-4-4.33L142.52,94l3.81,4.41-8.77,8C144.78,114.68,151.89,122.77,159.23,131.14Z" transform="translate(-23.83 -21)"/><path class="cls-1" d="M503.88,186.77,538,168.25l3.73,6.59-28.92,15.75c2.7,5.06,5.3,9.94,8.05,15.07l-5.17,2.77Z" transform="translate(-23.83 -21)"/><path class="cls-1" d="M253.16,43.41c1.76,9,3.37,17.52,5.12,26,1.52,7.41.08,6.2,7.23,5,3.46-.59,6.9-1.31,10.67-2,.38,1.89.71,3.57,1.14,5.72l-24.14,4.74c-1.58-8-3.09-15.74-4.59-23.45-.72-3.67-1.22-7.39-2.19-11-.81-3-.05-4.31,3-4.41A32.59,32.59,0,0,0,253.16,43.41Z" transform="translate(-23.83 -21)"/><path class="cls-1" d="M391.64,561.72l-7.23,2.2c-3.85-12.4-7.65-24.59-11.52-37l7.21-2.24Z" transform="translate(-23.83 -21)"/><path class="cls-1" d="M558.44,295.63a8.1,8.1,0,0,1,8,8.19,8.25,8.25,0,1,1-16.5-.17A8.07,8.07,0,0,1,558.44,295.63Z" transform="translate(-23.83 -21)"/><path class="cls-1" d="M65.61,303.82a8.05,8.05,0,0,1-8.18,8.3A8.26,8.26,0,0,1,49.29,304a8.06,8.06,0,0,1,8.13-8.35A7.85,7.85,0,0,1,65.61,303.82Z" transform="translate(-23.83 -21)"/><path d="M207.26,375.76c6.61,0,12.63.1,18.63-.13.77,0,1.85-1.68,2.15-2.76C231.56,360,235,347,238.41,334.09q9.65-36.24,19.33-72.47c1-3.77,3.38-5.76,6.76-5.75s5.65,1.86,6.7,5.78q10.88,40.59,21.69,81.21Q301.47,375,310,407.21c.19.7.37,1.4.54,2.11.81,3.37-.24,6.27-2.85,7.86a6.82,6.82,0,0,1-8.34-1c-8.27-7.42-16.49-14.91-24.73-22.37L244,366c-1.44,5.35-2.78,10.29-4.1,15.24-2.75,10.32-5.46,20.65-8.24,31-1,3.86-3.38,5.89-6.62,5.95-4.39.09-7.47-3.58-6.72-8.11.27-1.63.81-3.21,1.2-4.83s.77-3.2,1.29-5.35h-3.52c-9.56,0-19.13-.07-28.69,0-2.43,0-3.2-.69-3.2-3.16q.09-89.49,0-179c0-2.42.69-3.29,3.16-3.24,6.12.14,12.23.05,18.72.05Zm44.9-20.64L291,390.31l.48-.34c-5.24-19.65-10.49-39.29-15.86-59.42Zm12.65-65-.64,0-11.82,44.42c6.38-5.93,12.27-12.05,18.07-18.25a3.08,3.08,0,0,0,.64-2.46C269,305.87,266.91,298,264.81,290.09Z" transform="translate(-23.83 -21)"/><path d="M389,326.08v73.61H367.19V394.9q0-73,.05-146a9.5,9.5,0,0,0-2.88-7.45c-4.17-4.16-8-8.63-12.17-13.13l15.48-17.07c2.87,3.13,5.51,6,7.62,8.28,5-2.48,9.5-5.56,14.44-6.94,13.47-3.76,27.68,4.17,32.8,18.11A41.48,41.48,0,0,1,425,244.07c.3,16.22.08,32.44.14,48.66a34.57,34.57,0,0,1-5.25,18.94c-.86,1.38-1.14,2.35-.15,3.87a34.21,34.21,0,0,1,5.39,19.21q0,30.57,0,61.14v3.7h-22v-3.95q0-29.79,0-59.58a17.43,17.43,0,0,0-.75-5.49,6.32,6.32,0,0,0-6.43-4.49Zm.24-24.48a65.39,65.39,0,0,0,8.19-.07c3.6-.47,5.76-3.92,5.76-8.8q0-23.85,0-47.7a17.34,17.34,0,0,0-.16-2.8c-.55-3.41-3.61-6.3-6.7-6.4a7.06,7.06,0,0,0-6.82,5.74,16.87,16.87,0,0,0-.43,4q0,26.34,0,52.69C389.05,299.29,389.15,300.3,389.21,301.6Z" transform="translate(-23.83 -21)"/><path d="M154.11,251.84V239c-3.06,0-6-.34-8.75.09-3.22.49-5.24,3.87-5.26,7.89,0,7.59,0,15.18,0,22.76v95.41c0,8.5,2.2,10.71,10.66,10.65,1,0,2-.11,3.19-.17V332.48l-7-.34v-9.38c0-3.95.06-7.9,0-11.84,0-2,.56-2.8,2.64-2.78,7.8.08,15.6.13,23.39,0,2.78-.06,3.18,1.15,3.18,3.54-.07,25.56,0,51.13,0,76.7,0,3-.05,6,0,9,0,1.6-.36,2.52-2.24,2.5-9.87-.09-19.77.31-29.61-.25-11.78-.67-22.24-10.65-25-23.19a46.24,46.24,0,0,1-1.12-9.87q-.12-59.23,0-118.48c0-11.9,3.91-22,14.06-29a25,25,0,0,1,14.34-4.53c8.84,0,17.67.06,26.51,0,2.44,0,3.2.79,3.18,3.23q-.18,15.43,0,30.87c0,2.39-.62,3.31-3.16,3.24C166.87,251.72,160.75,251.84,154.11,251.84Z" transform="translate(-23.83 -21)"/><path d="M469.66,375.34V332.49l-7-.36c0-3.44,0-6.73,0-10,0-3.85-.09-7.7.09-11.54,0-.81,1.05-2.25,1.63-2.26,9-.14,18.05-.1,27.31-.1v91.51c-1.13.06-2.23.16-3.33.16-7.17,0-14.37-.39-21.52.08-21.5,1.43-33.16-16.23-33-33.12.33-29.21.07-58.43.11-87.64,0-12.27-.38-24.56.35-36.79.9-15,13.44-28.63,30.22-27.88,7.78.35,15.59.05,23.39.06,1.23,0,2.45.11,3.82.17v37.05c-6.89,0-13.61.06-20.33-.1-.55,0-1.48-1.49-1.52-2.32-.18-3.4-.07-6.82-.07-10.51-3,0-5.69-.32-8.29.08-3.21.5-4.91,2.92-5.49,6a20.05,20.05,0,0,0-.23,3.72c0,38.57.12,77.14-.1,115.71C455.66,374.45,460,377,469.66,375.34Z" transform="translate(-23.83 -21)"/><path d="M338.28,327.24l-34,31.73c-1.3-5-2.59-9.32-3.46-13.75-.19-.93.94-2.38,1.82-3.21,8.15-7.7,16.37-15.32,25-23.35l-21.49-22.08-8.93,33.24-.6,0c-1.71-6.32-3.26-12.69-5.18-19a21,21,0,0,1,0-12.14c6.74-24.72,13.29-49.49,19.9-74.25,1.15-4.29,3.46-6.4,6.92-6.37s5.7,2.1,6.77,6.14q19.62,73.56,39.2,147.12c.94,3.56-.1,6.58-2.84,8.13s-5.57,1.49-7.79-.67a11.66,11.66,0,0,1-2.7-5.09c-3.88-14.22-7.62-28.48-11.41-42.73C339.12,330,338.77,328.9,338.28,327.24Zm-6.63-25.3-13.27-49.81c-2.6,8-4.45,15.94-6.91,23.73-1.2,3.82-.88,6.44,2.19,9.18C320,290.66,326,296.6,331.65,301.94Z" transform="translate(-23.83 -21)"/><path d="M308,441.49H168.58a21.94,21.94,0,0,1-2.81,0c-2.47-.32-4-1.73-4.14-4.27a4.14,4.14,0,0,1,3.67-4.64,16,16,0,0,1,3.1-.21q139.69,0,279.4,0a14.63,14.63,0,0,1,3.1.24,4.12,4.12,0,0,1,3.54,4.44,4.3,4.3,0,0,1-4,4.44,19.09,19.09,0,0,1-3.12.06Z" transform="translate(-23.83 -21)"/><path d="M309.91,160.94H448.42c1.25,0,2.5,0,3.74.09a4,4,0,0,1,4,4,4.1,4.1,0,0,1-3.23,4.68,13.18,13.18,0,0,1-3.38.38q-139.76,0-279.51,0a11.46,11.46,0,0,1-4-.55c-2.09-.79-3.28-2.69-2.53-4.72a8.41,8.41,0,0,1,3.55-3.69c.93-.56,2.43-.19,3.68-.19Z" transform="translate(-23.83 -21)"/><path d="M239.94,239.35a25.1,25.1,0,1,1,42.7,17.87,7.72,7.72,0,0,1-4.57,1.94c-.88,0-2.58-1.6-2.61-2.53a6.55,6.55,0,0,1,1.68-4.29c5.46-5.66,7-12.11,4.29-19.46a17.38,17.38,0,0,0-16.18-11.17,17.83,17.83,0,0,0-16.5,10.77,17.45,17.45,0,0,0,3.56,19.07c.5.52,1.06,1,1.53,1.55,1.38,1.67,1.5,3.45,0,5.07a3.34,3.34,0,0,1-5,.3,24,24,0,0,1-8.65-15.71C240.05,241.63,240,240.49,239.94,239.35Z" transform="translate(-23.83 -21)"/><path d="M318.12,176.77a25,25,0,0,1,17.49,42.95,7.08,7.08,0,0,1-4.29,1.89,3.72,3.72,0,0,1-2.73-2.42,5.36,5.36,0,0,1,1.27-4.07c4.11-4,6.22-8.73,5.88-14.51A17.63,17.63,0,0,0,303,192.76a17.51,17.51,0,0,0,1.82,20.59c.62.7,1.29,1.34,1.94,2,1.63,1.71,1.76,3.61.16,5.27s-3.53,1.53-5.28,0A24.47,24.47,0,0,1,293.39,206,25,25,0,0,1,318.12,176.77Z" transform="translate(-23.83 -21)"/><path d="M303.78,465.23a6.07,6.07,0,0,0-.37.82c-1.31,8.71-1.14,8.91,7.41,8.91a29,29,0,0,0,3.73,0c2.77-.36,3.29,1,3.23,3.43-.06,2-.74,2.74-2.76,2.65-3-.13-6,.09-9-.07-2.24-.12-2.93.79-2.83,2.9.11,2.55,0,5.12,0,8h15.95a24.68,24.68,0,0,1,.14,4.47c-.09.65-1,1.66-1.62,1.67-7.15.11-14.3.08-21.68.08V459.37h22.31v5.86Z" transform="translate(-23.83 -21)"/><path d="M257.93,459.54a11.7,11.7,0,0,1,1.27-.34c6.39-.5,6.39-.5,8.24,5.69l7.24,24.29c2.1-6.7,4.07-12.95,6-19.2.74-2.37,1.67-4.71,2.18-7.13.63-3,2.16-4.21,5.17-3.74,1.09.18,2.21.14,3.63.22-.25,1.08-.37,1.86-.62,2.59-3.83,11.18-7.74,22.33-11.49,33.53-.69,2.05-1.77,2.7-3.85,2.65-6.65-.18-5.17.78-7.18-5.22-3.4-10.12-6.59-20.3-9.86-30.46C258.41,461.55,258.22,460.65,257.93,459.54Z" transform="translate(-23.83 -21)"/><path d="M351.76,491.25a8.81,8.81,0,0,1,.47,1c1.42,4.64,1,5.44-3.71,6.06-5.74.76-11.42.73-16.62-2.36-6.93-4.11-10.11-12.63-8.17-21.8,1.79-8.47,7.95-14.25,16.32-15.33,5.67-.73,10.27-.12,13.46,1.88-.48,1.69-1,3.44-1.54,5.36-7.22-2-14.09-2.6-18.84,4.41-3.25,4.8-3,12.65.47,17.09C338.44,493.71,344.92,493,351.76,491.25Z" transform="translate(-23.83 -21)"/><path d="M318.05,190.56a11.19,11.19,0,1,1-11.3,11.18A11,11,0,0,1,318.05,190.56Z" transform="translate(-23.83 -21)"/><path d="M265.18,228.12a11.24,11.24,0,1,1-11.51,11A11.14,11.14,0,0,1,265.18,228.12Z" transform="translate(-23.83 -21)"/><path d="M361.18,553.31c-.24,8-8.06,14.76-16.12,13.78a3,3,0,0,1-1.75-2c-1.38-7.56-2.58-15.14-3.94-22.7-.34-1.9,0-3,2.1-3.21,2.47-.25,5-1,7.38-.86C356.91,538.88,361.44,544.55,361.18,553.31Z" transform="translate(-23.83 -21)"/><path d="M523,449.73a18.58,18.58,0,0,1-14.59-10.53c-1.89-3.83-1.07-7.49,1.48-10.77,2.87-3.7,6.82-4.66,11.16-3.76A19.1,19.1,0,0,1,533.39,433c2.3,3.45,2.73,7.16.7,10.89C532,447.77,528.67,449.77,523,449.73Z" transform="translate(-23.83 -21)"/><path d="M312.29,57.12c-1.23,3.57-1.81,6.94-3.45,9.68-3.84,6.41-12.94,6.51-17.37.49-3.83-5.19-4.16-14-.73-19.47,4-6.4,13-7,17.31-.84C310.09,49.9,310.9,53.68,312.29,57.12Z" transform="translate(-23.83 -21)"/><path d="M425.85,534.53c-.15,5.18-2,8.62-6.15,10.68s-8.14,1.41-11.6-1.48a18.26,18.26,0,0,1-6.86-15.35,10.57,10.57,0,0,1,16.63-8.32C423.16,523.63,425.32,529,425.85,534.53Z" transform="translate(-23.83 -21)"/><path d="M491.46,474.17c-3.17-2.77-5.72-4.9-8.12-7.18-.5-.48-.89-1.94-.58-2.28a31.67,31.67,0,0,1,5.78-5.51c2-1.34,4.43-.84,6.3.95s2.81,3.86,1.65,6.16A89.74,89.74,0,0,1,491.46,474.17Z" transform="translate(-23.83 -21)"/><path d="M202,78.62c-1.7-3.9-3.27-7.47-4.92-11.23,3.88-2,7.45-4.93,11.69-2.34a6.9,6.9,0,0,1,2.81,5.36C211.08,75.68,206.32,76.72,202,78.62Z" transform="translate(-23.83 -21)"/><path d="M61.88,213.18c1.44-4.42,2.23-8.92,7-9.93a6.85,6.85,0,0,1,5.61,2.21c3.12,4,.58,8-1.23,12.27Z" transform="translate(-23.83 -21)"/><path d="M213,521.41a67.25,67.25,0,0,1,7.41,3.69,5.15,5.15,0,0,1,2.23,6.48c-1,2.75-2.94,4.47-5.83,4.14s-5.52-1.35-8.71-2.18C209.77,529.32,211.26,525.65,213,521.41Z" transform="translate(-23.83 -21)"/><path d="M261.16,549.83c.69-4.18,1.13-7.47,1.84-10.7a2.66,2.66,0,0,1,2-1.61,27.13,27.13,0,0,1,6.61,1.52,5.14,5.14,0,0,1,3.37,5.72c-.31,2.93-2,5-4.84,5.31S264.47,550,261.16,549.83Z" transform="translate(-23.83 -21)"/><path d="M107.9,136.54,123.77,143l-6.71,8Z" transform="translate(-23.83 -21)"/><path d="M98.07,448.84l-5.75-8.79,16.3-4.63Z" transform="translate(-23.83 -21)"/><path d="M393,75.33l10.86-13.27c-.38,6-.71,11.29-1.08,17.09Z" transform="translate(-23.83 -21)"/><path d="M57.15,351.26l17,1.65-14.74,8.58Z" transform="translate(-23.83 -21)"/><path d="M311.88,558.59H301.42l5.22-16.23C308.49,548.08,310.1,553.06,311.88,558.59Z" transform="translate(-23.83 -21)"/><path d="M551.22,362.89c-3.41-.76-6.88-1.4-10.26-2.38-.8-.23-1.28-1.59-1.9-2.45,0-.06,0-.2,0-.3.7-3.61,1.36-7.38,5.48-8.67a6.3,6.3,0,0,1,7.21,2.4C553.89,354.24,553.6,359.47,551.22,362.89Z" transform="translate(-23.83 -21)"/><path class="cls-1" d="M252.16,355.12l23.42-24.57C281,350.68,286.2,370.32,291.44,390l-.48.34Z" transform="translate(-23.83 -21)"/><path class="cls-1" d="M264.81,290.09c2.1,7.89,4.23,15.78,6.25,23.69a3.08,3.08,0,0,1-.64,2.46c-5.8,6.2-11.69,12.32-18.07,18.25l11.82-44.42Z" transform="translate(-23.83 -21)"/><path class="cls-1" d="M389.21,301.6c-.06-1.3-.16-2.31-.16-3.33q0-26.34,0-52.69a16.87,16.87,0,0,1,.43-4,7.06,7.06,0,0,1,6.82-5.74c3.09.1,6.15,3,6.7,6.4a17.34,17.34,0,0,1,.16,2.8q0,23.85,0,47.7c0,4.88-2.16,8.33-5.76,8.8A65.39,65.39,0,0,1,389.21,301.6Z" transform="translate(-23.83 -21)"/><path class="cls-1" d="M331.65,301.94c-5.64-5.34-11.67-11.28-18-16.9-3.07-2.74-3.39-5.36-2.19-9.18,2.46-7.79,4.31-15.76,6.91-23.73Z" transform="translate(-23.83 -21)"/></svg>