<?xml version="1.0" encoding="utf-8"?>
<!-- Generator: Adobe Illustrator 26.0.2, SVG Export Plug-In . SVG Version: 6.00 Build 0)  -->
<svg version="1.1" id="Layer_1" xmlns="http://www.w3.org/2000/svg" xmlns:xlink="http://www.w3.org/1999/xlink" x="0px" y="0px"
	 viewBox="0 0 568.3 568.3" style="enable-background:new 0 0 568.3 568.3;" xml:space="preserve">
<style type="text/css">
	.st0{fill:#FFFFFF;}
	.st1{fill:#FEE300;}
</style>
<path d="M297.6,568.3h-27.5c-0.9-0.2-1.8-0.4-2.7-0.5c-17.2-1-34.2-3.6-50.9-7.6C133.3,539.8,63.7,483,27.1,405.5
	C12.6,375,3.8,342.2,1.2,308.6c-0.3-3.5-0.8-6.9-1.2-10.4v-27.4c0.2-0.6,0.4-1.1,0.4-1.7c0.9-16.4,3.3-32.8,7-48.8
	C23.3,154.1,58.1,100.3,112,58.8c44.7-34.4,95.6-53.1,151.8-57.4c14.7-1.1,29.5-1,44.2,0.4c16.7,1.4,33.3,4.3,49.5,8.6
	c56.1,15.3,103.4,44.8,141.3,88.8c42.9,49.8,65.5,107.9,68.8,173.4c1.3,26.8-1.4,53.6-8,79.5c-12.1,49.2-35.7,92.1-70.7,128.7
	c-24,25.3-52.6,45.8-84.2,60.6c-30.4,14.4-63.1,23.1-96.6,25.8C304.6,567.4,301.1,567.9,297.6,568.3z M68.6,284.5
	c-0.5,117.5,95,213.6,211.9,215.3c119.9,1.8,216.8-94.7,218.7-211.7C501.2,168.9,405,69.2,284,69.1C163.5,69.1,68,167.5,68.6,284.5
	L68.6,284.5z M56.9,363.6c-7.7,6.6-14.7,12.7-21.8,18.8c-1.3,1.1-2.4,2-1.4,4.1s1.6,3.4,4.4,3.2c8.7-0.8,17.4-1.2,26.1-1.8
	c0.8,0,1.6,0,2.5,0c-0.9,0.9-1.9,1.5-3.1,2c-7.2,3.5-14.4,7-21.7,10.3c-1.8,0.8-2.4,1.7-1.3,3.6c0.7,1.3,1.2,2.8,2,4.4L77.3,391
	c-1.1-2.6-2.1-4.7-2.9-7c-0.6-1.7-1.5-2.1-3.2-2c-5.8,0.4-11.6,0.6-17.4,1c-3.2,0.2-6.4,0.5-9.6,0.8c0.5-1,1.3-1.9,2.2-2.5
	c6-5.2,12.1-10.5,18.1-15.8c0.7-0.6,1.1-1.5,1-2.4c-0.9-2.7-2.2-5.3-3.3-8.1l-36.9,12.5c1,2.4,1.9,4.2,2.8,6.5L56.9,363.6z
	 M413.4,49.5l-20.8,32.8l5.9,3.7l15.9-25.2c0,1.6,0,2.2,0,2.8c-0.2,9.9-0.4,19.7-0.5,29.6c-0.1,1.1,0.2,2.2,0.9,3
	c1.8,1.4,3.7,2.6,5.7,3.7c7-11,13.9-21.9,20.9-32.8l-6.1-3.7l-14.5,23.4c0-9.8,0-19.9,0-29.9c0.1-1.3-0.4-2.6-1.2-3.6
	C417.6,52,415.5,50.7,413.4,49.5z M325.4,511.1c-5.5,1.1-10.9,2.3-16.4,3.3c-1.9,0.4-2.1,1.5-1.8,3.2c1.9,10.9,3.8,21.9,5.6,32.8
	c0.3,1.8,1.2,2.5,3,2.2c5.8-1.2,11.7-1.9,17.2-3.9c9.8-3.6,13.9-12.1,11.8-22.6C342.9,516.7,336.2,511.7,325.4,511.1L325.4,511.1z
	 M517.7,416c0-10.6-10-20-21.3-20c-10,0-18.9,9.3-18.9,20s9.9,20.1,21.2,20.3C508.8,436.3,517.7,426.9,517.7,416z M275.7,56.1
	c12.1,0,19.8-7.8,19.9-19.9s-7.5-20-19-20c-12.1,0-20,8-20.1,20.1C256.6,48.2,264.2,56.1,275.7,56.1L275.7,56.1z M390.2,491
	c-11.3,0-20.3,8.5-20.3,19.2c0,11.6,8.6,21.3,19.1,21.3c11.2,0,20.5-8.6,20.5-19C409.5,500.7,400.8,491,390.2,491z M497.4,450.5
	c-6.5-1.9-11.5-7.5-19.1-5.8c0.1-0.9,0.1-1.5,0.2-2.1c0.7-4.5-0.5-8.3-4.5-10.7s-8.1-1.8-11.7,0.9c-5.2,3.8-9.1,8.9-12.8,14.5
	l28.7,25.4l4.9-5.6l-11.7-10.5c4.5-6.4,6.8-7,13.2-3.6l1.4,0.7c6.3,3.2,6.3,3.2,10.8-2.1C497.1,451.2,497.3,450.8,497.4,450.5
	L497.4,450.5z M478.2,101.8c-3.3-8.9-14.7-16.8-23.7-16.5c-14.3,0.5-23.5,16-16.7,28.2c3.9,6.9,10,11.5,17.2,14.9l13.5-14.3
	l-10.7-10.1l-4.1,4.4l5.5,4.7l-2.6,2.7c-4.7,5-5.4,5-9.9-0.2c-5.2-5.9-5.2-12.9,0.1-18.8c5.1-5.7,12.2-6.6,18.4-1.8
	c3.2,2.5,5.8,5.8,8.9,9L478.2,101.8z M164.3,44.9l15.4,35.2l6.8-3.1c-2.1-5-4.1-9.6-6.1-14.2c5.5-4,9-3.6,12.9,1.4
	c1.6,2,3.1,4,4.8,5.7c0.7,0.7,1.7,1,2.6,0.8c2-0.8,4-1.6,5.9-2.6c-5.3-4.6-7.5-11.9-15.2-13.4c0.5-0.8,0.9-1.4,1.3-2
	c2.4-3.8,2.6-7.6,0.2-11.4s-6.1-5-10.3-4.3C176.1,38.2,170.3,41.5,164.3,44.9z M443.6,454.1c-8.3,3.7-14.9,8.6-18.1,16.9
	c-2.7,7-1.4,13.5,3.3,19.2c4.5,5.4,10.1,8.3,17.2,7c9.1-1.7,15.1-7.9,20.3-14.9c0.3-0.7,0.3-1.5-0.1-2.2c-3.7-4.7-7.5-9.4-11.5-14.2
	l-11.4,9.3c1.3,1.6,2.4,2.9,3.6,4.2l5.7-4.4c1.8,2.3,3.5,4.1,4.9,6.1c0.4,0.7,0.5,1.6,0.2,2.4c-4,6.8-14,8.8-20.2,4.2
	c-8.1-6-8.6-15.8-1-22.4c2.7-2.3,5.9-4,9-6.1C445.1,457.7,444.4,456.1,443.6,454.1z M57,185.3c-0.1-0.3-0.3-0.7-0.4-1
	c-0.8-5.4-3.2-8.4-7.6-9.4c-4.6-1.1-8.8,0.4-11.3,5.1c-2.9,5.4-5,11.2-7.6,17.2l36.2,14.5l2.8-6.9l-14.3-5.8
	c1.1-6.7,3.6-8.7,9.9-8.1c0.9,0.1,1.9,0.2,2.8,0.4c7,1.1,7,1.1,9.3-5.5c0.1-0.4,0.1-0.8,0.1-1.2C70.2,184.6,63.5,181.2,57,185.3z
	 M195.8,519.9c7.2-1.6,10-4,10.7-9.1c0.7-4.9-1.7-8.9-7.7-11.8c-4.2-1.9-8.6-3.6-13.1-4.9c-1-0.1-1.9,0.4-2.5,1.1
	c-4.4,10.6-8.8,21.3-13,32c-0.1,1,0.3,1.9,1.1,2.5c1.6,0.8,3.3,1.5,5.1,2c2.1-5,4.1-9.7,6-14.4c7.5,2.1,9,4.4,7.8,11.5
	c-0.4,2-0.6,4.1-0.6,6.2c0.1,1.1,0.7,2.1,1.6,2.8c1.7,0.9,3.6,1.6,5.4,2.2C196.4,533,199.8,526.5,195.8,519.9z M44.3,232.5
	c0.2-0.5,0.4-0.9,0.5-1.2c1.5-5.9,1.5-5.9,7.3-4.6c3.8,0.9,4.1,1.2,3.4,5c-0.1,0.6-0.3,1.2-0.4,1.8c-1.9,8.4-8.3,12.7-16.6,11
	c-8.1-1.6-12.5-8.4-10.8-16.8c0.7-3.3,2-6.5,3.1-10.1l-4.8-2.6c-4.2,8.4-6.3,16.8-2.9,25.7c3.1,8,9.5,11.5,17.7,12
	c7.6,0.5,13.3-2.8,16.9-9.5c3.4-6.3,4.2-13.2,3.8-20.2c-0.2-0.9-0.8-1.8-1.7-2.1c-5.8-1.4-11.7-2.5-17.7-3.8
	c-0.9,4.3-1.7,8.3-2.6,12.2c-0.3,1.5,0,2.4,1.7,2.6C42.2,232,43.2,232.3,44.3,232.5z M250.3,533.6c0.2-0.2,0.5-0.4,0.8-0.6
	c5.7-2.6,7.9-5.6,7.7-10.4s-3.2-8.2-9.1-9.8c-4.6-1.2-9.4-1.6-14.1-2.4c-2.2-0.4-3.1,0.6-3.4,2.8c-0.9,6-2,11.9-2.9,17.8
	c-0.9,5.6-1.8,11.2-2.7,17.1l7.2,1.3c0.9-5.2,1.8-10.3,2.7-15.3c6.8-0.3,9.7,2.2,10.1,8.4c0.1,1.5,0.3,3.1,0.5,4.6
	c0.6,5,2.7,6.3,8.3,5C253.5,546,255.8,538.9,250.3,533.6L250.3,533.6z M493.8,383.9c7.9,3.1,15.2,6.2,22.7,8.9
	c2.5,0.9,5.2,1.3,7.9,1c6.8-0.6,11.3-5.8,13.1-13.9c1.5-6.9-0.7-12.8-7.2-16c-7.8-3.9-16.1-6.9-24.4-10.4c-1,2.6-1.9,4.8-2.9,7.1
	c4,1.6,7.8,3.1,11.5,4.6c4.6,1.9,9.3,3.7,13.6,6.1c3.8,2.1,4.6,5.8,3.1,9.7s-4.4,5.8-8.8,5.2c-1.9-0.3-3.8-0.8-5.7-1.5
	c-6.6-2.6-13.2-5.2-20.2-8C495.6,379.2,494.8,381.4,493.8,383.9L493.8,383.9z M169.8,485.3c-3.8,6.2-7.4,12.1-11.1,18
	c-1.1,1.9-2.4,3.6-3.9,5.2c-3.1,3.1-6.6,3.3-10.2,1s-4.9-5.8-3.2-9.7c1.7-3.6,3.5-7,5.6-10.4c2.6-4.4,5.2-8.6,8-13.2l-6.6-4
	c-4.6,7.9-9.5,15.3-13.4,23.2c-3.7,7.4-1.3,13.9,5.8,18.5c7.7,5,15.5,4.9,20.5-1.5c5.6-7.1,10.1-15.1,15.2-23L169.8,485.3z
	 M97.3,150.1c5.5-5.4,5.5-5.4,1.8-11.2c-0.7-0.8-1.2-1.7-1.6-2.7c-0.3-1-0.3-2.2,0.2-3.2c1.8-2.5,3.8-4.9,6-7.1
	c0.9-0.7,2-0.9,3.1-0.7c2.4,0.7,4.6,1.9,7,2.6c1.1,0.2,2.2,0,3.1-0.7c1.4-1.4,2.8-3,4-4.6c-1.3-0.5-2.3-1-3.4-1.4
	c-9.5-3.7-19-7.3-28.4-11c-6.7-2.6-6.7-2.6-11.3,3.1c-1.1,1-1.2,2.7-0.3,3.9c1.9,3,3.6,6,5.4,9.1L97.3,150.1z M48.2,417.4
	c2.9,6.8,2.9,6.8,9.6,5c1.3-0.4,2.6-0.8,3.9-1c0.8-0.1,1.7,0.2,2.3,0.7c2.2,3.1,5.2,6.2,5.8,9.7c0.4,2.2-3.2,5-5,7.5
	c-0.2,0.3-0.6,0.6-0.7,1c-0.2,0.6-0.2,1.2,0,1.7c1.2,1.9,2.4,3.7,3.9,5.8l24.9-32.7c-1.3-2.1-2.7-3.8-3.7-5.7s-2.2-2.3-4.3-1.7
	c-6.9,1.9-13.8,3.6-20.8,5.4C58.8,414.6,53.5,416,48.2,417.4z M384.8,78.1c0.2-0.8,0.4-1.5,0.5-2.3c0.5-10.6,1-21.1,1.3-31.7
	c0.2-7.2,0.1-7.1-6.6-9.7c-1.3-0.7-2.9-0.3-3.7,1c-2.2,2.8-4.6,5.4-6.9,8.1l-18,21c6.2,3.9,6.4,3.9,10.7-1.2
	c0.4-0.5,0.8-0.9,1.2-1.5c1.5-2.5,3.3-3.2,6.1-1.7c2.6,1.4,6.7,1.7,8,3.7s0.1,5.9,0.2,9c0,1,0.5,2.4,1.2,2.8
	C380.8,76.6,382.8,77.4,384.8,78.1z M22.5,356.8c1.2-0.7,2.2-1.2,3.2-1.8l26.1-15.8c5.8-3.5,5.6-3.4,4.4-10
	c-0.5-2.4-1.5-3.1-3.9-3.4c-7.8-0.8-15.7-1.9-23.5-2.8l-13.9-1.6c0.4,1.5,0.7,3.1,0.8,4.6c0.2,2.3,1.3,3.1,3.6,3.3
	c8.5,0.7,8.2,0.8,10.4,9.1c0.9,3.6,0.2,5.3-3,7.1C20.2,349,20.3,349.2,22.5,356.8z M265,553.5c7.3,1.3,7.4,1.3,9.3-4.5
	c2-6,2-6,8.5-6s6.5,0,8.4,5.2c2.2,6.1,2.2,6.1,8.6,5.7c0.4-0.1,0.8-0.1,1.2-0.2c-0.3-1.1-0.6-2.2-1-3.2c-3.3-9.6-6.6-19.2-9.9-28.8
	c-2.3-6.8-2.3-6.7-9.5-6.5c-1.6-0.2-3,0.9-3.3,2.5c-1.4,4.2-2.9,8.4-4.4,12.7C270.3,537.9,267.6,545.7,265,553.5z M131.5,479.1
	l-11.8-10.3l6.4-7.5l12.7,10.7l3.7-4.5l-18.4-15.7l-25.2,29.6l19.1,16.3l3.7-4.4L108.4,482l7.4-8.6l11.9,10
	C128.9,482,130.1,480.7,131.5,479.1z M531.7,182.1c-0.5,0-0.9,0.1-1.3,0.2c-11.1,4-22.2,8-33.4,12.1c-1.6,0.6-1.7,1.5-1.2,2.9
	c1.1,2.8,2.1,5.7,3.1,8.5c1.6,4.2,3.1,8.5,4.8,12.9l5.4-2c-2-5.6-3.9-10.9-5.9-16.5l10.6-3.9l5.5,14.7l5.2-2.1
	c-1.8-5-3.4-9.6-5.2-14.6l9.3-3.3c2,5.4,3.9,10.4,5.8,15.5l5.3-2.1L531.7,182.1z M469.4,140.4l9-6.8L488,146l4.5-3.5l-9.3-12.4
	l7.9-6l10.1,13.2l4.6-3.5l-14.5-19.3l-31.1,23.4l15.1,20.1l4.6-3.5C476.4,149.8,473.1,145.3,469.4,140.4z M65.4,158.8l-8.5-5.2
	l8.4-14.2l-5-2.9l-12.4,20.8l33.4,19.9c4.4-7.3,8.6-14.4,12.9-21.6l-5-2.9c-3.1,5.1-6,9.9-9.1,14.9l-9.7-5.8c2.7-4.6,5.2-9,7.9-13.5
	l-4.9-2.8L65.4,158.8z M149.8,52.2l-20.3,13.1l21,32.7l21.1-13.6l-3.1-4.8l-14.8,9.4l-6.1-9.6l13.1-8.5l-3.1-4.8l-13.2,8.4l-5.4-8.4
	l13.9-9L149.8,52.2z M533.6,343.2c0.3-1.3,0.5-2.2,0.7-3.2c0.9-4.1,1.2-8.2-0.3-12.3c-1.7-4.5-5.2-6.7-9.7-7.3
	c-4.1-0.7-8.3,1.2-10.5,4.8c-4,6.1-4.5,13.2-5.3,20.3l37.4,8.3c0.6-2.7,1-4.9,1.5-7.3l-6.9-1.6L533.6,343.2z M303.8,54
	c4.9,3.4,12.1,5.2,17.3,4.4c5.8-0.9,9.6-4,10.6-8.7c1.1-4.9-0.9-8.8-6.1-12.2c-2.1-1.3-4.4-2.4-6.4-3.8s-4.1-2.8-3-5.8
	s3.5-3.5,6.1-3.1c3.1,0.5,6.1,1.5,9.4,2.3l2.2-4.6c-5.3-3.3-12.2-4.5-17.4-3c-4,1.1-7,3.4-8,7.5c-1.1,4,0.5,8.2,3.9,10.4
	c1.8,1.4,3.8,2.5,5.8,3.7c1.4,0.9,3.1,1.6,4,2.8s1.9,3.5,1.5,4.9s-2.3,2.9-3.8,3.5c-1.6,0.5-3.3,0.5-4.9,0c-3-0.8-5.8-2-9-3.2
	C305.4,50.5,304.6,52.2,303.8,54z M547.2,243.1c1.8-6.1,0.2-14.1-3.5-18.5c-5.3-6.3-14.3-5-17.3,2.7c-1,2.5-1.2,5.2-1.8,7.8
	c-0.3,1.3-0.3,2.9-1,3.9c-1.2,1.5-2.9,3.3-4.5,3.5c-1.5,0.1-4.1-1.6-4.5-2.9c-1.2-4.3-1.5-8.8-2.2-13.2c0.2-0.4-0.5-0.6-1.2-0.7
	s-1.3-0.4-1.8-0.2c-0.8,0.3-2,0.9-2.1,1.5c-0.9,7.5-0.3,14.8,5.6,20.5c4.1,3.9,10.5,3.7,14.3-0.3c0.8-0.8,1.4-1.8,1.9-2.8
	c0.8-2,1.4-4.1,1.9-6.2c0.6-2.3,0.7-4.8,1.7-6.9c0.6-1.3,2.2-2.8,3.5-2.9c1.4-0.1,3.2,1.2,4.3,2.3c0.8,1.1,1.3,2.4,1.4,3.7
	c0.3,2.6,0.3,5.3,0.4,8.1L547.2,243.1z M82.8,464.9l24.7-21.7l8,8.9l4.4-4l-20.8-23.5l-4.4,3.9l7.7,8.9l-24.7,21.8
	C79.6,461.2,81.2,463,82.8,464.9z M135.4,110.1c-7.3-8.4-14.4-16.5-21.7-24.7l8.8-8l-3.8-4.5L95.1,93.8l4,4.3l8.8-7.6l21.8,24.6
	L135.4,110.1z M480.1,165.8l11.8,21.7l5.2-2.8c-2.8-5.1-5.3-10-8-15.1l28.9-15.8l-3.7-6.6L480.1,165.8z M229.3,22.4
	c-1.2,0.3-2.5,0.5-3.7,0.6c-3.1,0.1-3.8,1.4-3,4.4c1,3.6,1.5,7.3,2.2,11c1.5,7.7,3,15.4,4.6,23.5l24.1-4.7c-0.4-2.2-0.8-3.8-1.1-5.7
	c-3.8,0.7-7.2,1.4-10.7,2c-7.1,1.2-5.7,2.4-7.2-5C232.7,39.9,231.1,31.4,229.3,22.4z M367.8,540.7l-11.5-37.1l-7.2,2.2
	c3.9,12.5,7.7,24.6,11.5,37L367.8,540.7z M534.6,274.6c-4.5-0.2-8.2,3.2-8.5,7.6c0,0.1,0,0.2,0,0.4c0,4.6,3.6,8.3,8.2,8.3
	c4.6,0,8.3-3.6,8.3-8.2C542.7,278.3,539.1,274.7,534.6,274.6L534.6,274.6z M41.8,282.8c0.2-4.3-3.2-8-7.5-8.2c-0.2,0-0.5,0-0.7,0
	c-4.5,0-8.1,3.5-8.1,8c0,0.1,0,0.3,0,0.4c0.1,4.5,3.7,8.1,8.1,8.1c4.4,0.1,8.1-3.5,8.2-7.9C41.8,283.1,41.8,283,41.8,282.8z"/>
<path class="st0" d="M297.6,568.3c3.5-0.4,7-0.9,10.4-1.2c33.5-2.7,66.2-11.4,96.6-25.8c31.6-14.8,60.2-35.3,84.2-60.6
	c34.9-36.6,58.5-79.5,70.7-128.7c6.6-26,9.3-52.8,8-79.5c-3.3-65.5-25.9-123.6-68.8-173.4c-38-44-85.2-73.5-141.3-88.8
	C341.2,6,324.7,3.1,308,1.7c-14.7-1.4-29.5-1.5-44.2-0.4c-56.2,4.4-107,23-151.8,57.4C58.1,100.2,23.3,154,7.5,220.2
	c-3.7,16-6.1,32.4-7,48.8c-0.1,0.6-0.2,1.2-0.4,1.7V0c0.1,0,0.2,0,0.3,0h568.1v568.3H297.6z"/>
<path class="st0" d="M0,298.2c0.4,3.5,0.9,6.9,1.2,10.4c5.7,68.7,36.3,132.9,86.1,180.6c36,34.7,80.6,59.2,129.3,71
	c16.7,4,33.8,6.6,50.9,7.6c0.9,0.1,1.8,0.3,2.7,0.5H0V298.2z"/>
<path class="st1" d="M68.7,284.5C68,167.5,163.5,69.1,284,69.1c121.1,0,217.2,99.7,215.3,218.9c-1.9,117.1-98.8,213.5-218.7,211.7
	C163.6,498.1,68.2,402,68.7,284.5z M183.4,354.8V193.6c-6.5,0-12.6,0.1-18.7-0.1c-2.5,0-3.2,0.8-3.2,3.2c0.1,59.7,0.1,119.3,0,179
	c0,2.5,0.8,3.2,3.2,3.2c9.6-0.1,19.1,0,28.7,0h3.5c-0.5,2.1-0.9,3.8-1.3,5.4s-0.9,3.2-1.2,4.8c-0.8,4.5,2.3,8.2,6.7,8.1
	c3.2-0.1,5.6-2.1,6.6-6c2.8-10.3,5.5-20.6,8.2-31c1.3-5,2.7-9.9,4.1-15.2l30.7,27.8c8.2,7.5,16.5,15,24.7,22.4
	c2.2,2.2,5.7,2.6,8.3,1c2.6-1.6,3.7-4.5,2.9-7.9c-0.2-0.7-0.4-1.4-0.5-2.1c-5.7-21.5-11.4-42.9-17.1-64.4
	c-7.2-27.1-14.4-54.1-21.7-81.2c-1-3.9-3.3-5.8-6.7-5.8s-5.8,2-6.8,5.8c-6.5,24.1-12.9,48.3-19.3,72.5c-3.4,12.9-6.9,25.9-10.4,38.7
	c-0.3,1.1-1.4,2.7-2.1,2.8C196.1,354.9,190,354.8,183.4,354.8L183.4,354.8z M365.2,305.1h7c2.9-0.2,5.6,1.7,6.4,4.5
	c0.5,1.8,0.8,3.6,0.8,5.5c0.1,19.9,0.1,39.7,0,59.6v4h22v-3.7c0-20.4,0-40.8,0-61.1c0.2-6.8-1.7-13.5-5.4-19.2
	c-1-1.5-0.7-2.5,0.1-3.9c3.5-5.7,5.4-12.3,5.2-18.9c-0.1-16.2,0.2-32.4-0.1-48.7c-0.1-4.6-0.9-9.1-2.5-13.4
	c-5.1-13.9-19.3-21.9-32.8-18.1c-4.9,1.4-9.4,4.5-14.4,6.9c-2.1-2.3-4.8-5.1-7.6-8.3l-15.5,17.1c4.1,4.5,8,9,12.2,13.1
	c2,1.9,3.1,4.7,2.9,7.4c-0.1,48.7-0.1,97.3,0,146v4.8h21.8V305.1z M130.3,230.8c6.6,0,12.8-0.1,18.9,0c2.5,0.1,3.2-0.9,3.2-3.2
	c-0.1-10.3-0.1-20.6,0-30.9c0-2.4-0.7-3.3-3.2-3.2c-8.8,0.1-17.7,0-26.5,0c-5.1,0-10.1,1.6-14.3,4.5c-10.2,7-14.1,17.1-14.1,29
	c0,39.5,0,79,0,118.5c0,3.3,0.4,6.6,1.1,9.9c2.8,12.5,13.3,22.5,25,23.2c9.8,0.6,19.7,0.2,29.6,0.2c1.9,0,2.3-0.9,2.2-2.5
	c-0.1-3,0-6,0-9c0-25.6,0-51.1,0-76.7c0-2.4-0.4-3.6-3.2-3.5c-7.8,0.1-15.6,0.1-23.4,0c-2.1,0-2.7,0.8-2.6,2.8c0.1,3.9,0,7.9,0,11.8
	v9.4l7,0.3v43.2c-1.2,0.1-2.2,0.2-3.2,0.2c-8.5,0.1-10.7-2.1-10.7-10.6v-95.4c0-7.6,0-15.2,0-22.8c0-4,2-7.4,5.3-7.9
	c2.8-0.4,5.7-0.1,8.8-0.1v12.9H130.3z M445.8,354.3c-9.7,1.7-14-0.9-13.9-10.9c0.2-38.6,0.1-77.1,0.1-115.7c0-1.2,0-2.5,0.2-3.7
	c0.6-3.1,2.3-5.5,5.5-6c2.6-0.4,5.3-0.1,8.3-0.1c0,3.7-0.1,7.1,0.1,10.5c0,0.8,1,2.3,1.5,2.3c6.7,0.2,13.4,0.1,20.3,0.1v-37.1
	c-1.4-0.1-2.6-0.2-3.8-0.2c-7.8,0-15.6,0.3-23.4-0.1c-16.8-0.8-29.3,12.9-30.2,27.9c-0.7,12.2-0.3,24.5-0.4,36.8
	c0,29.2,0.2,58.4-0.1,87.6c-0.2,16.9,11.5,34.5,33,33.1c7.1-0.5,14.4-0.1,21.5-0.1c1.1,0,2.2-0.1,3.3-0.2v-91.5
	c-9.3,0-18.3,0-27.3,0.1c-0.6,0-1.6,1.5-1.6,2.3c-0.2,3.8-0.1,7.7-0.1,11.5c0,3.3,0,6.6,0,10l7,0.4L445.8,354.3z M314.4,306.2
	c0.5,1.7,0.8,2.7,1.1,3.8c3.8,14.2,7.5,28.5,11.4,42.7c0.5,1.9,1.4,3.6,2.7,5.1c2.2,2.2,5.1,2.2,7.8,0.7s3.8-4.6,2.8-8.1
	c-13.1-49-26.1-98.1-39.1-147.1c-1.1-4-3.4-6.1-6.8-6.1s-5.8,2.1-6.9,6.4c-6.6,24.8-13.2,49.5-19.9,74.3c-1.2,4-1.2,8.2,0,12.1
	c1.9,6.3,3.5,12.6,5.2,19h0.6l8.9-33.2l21.5,22.1c-8.6,8-16.8,15.6-25,23.4c-0.9,0.8-2,2.3-1.8,3.2c0.9,4.4,2.2,8.8,3.5,13.8
	L314.4,306.2z M284.2,420.5h139.4c1,0.1,2.1,0,3.1-0.1c2.3-0.2,4.1-2.1,4-4.4c0.2-2.2-1.4-4.1-3.5-4.4c-1-0.2-2.1-0.3-3.1-0.2
	c-93.1,0-186.3,0-279.4,0c-1,0-2.1,0-3.1,0.2c-2.3,0.2-3.9,2.3-3.7,4.6c0,0,0,0.1,0,0.1c0.1,2.5,1.7,4,4.1,4.3
	c0.9,0.1,1.9,0.1,2.8,0L284.2,420.5z M286.1,139.9H146.9c-1.2,0-2.8-0.4-3.7,0.2c-1.5,0.8-2.8,2.1-3.6,3.7c-0.8,2,0.4,3.9,2.5,4.7
	c1.3,0.4,2.6,0.6,4,0.6c93.2,0,186.3,0,279.5,0c1.1,0,2.3-0.1,3.4-0.4c2.2-0.4,3.6-2.5,3.2-4.7c0-2.2-1.8-4-4-4
	c-1.2-0.1-2.5-0.1-3.7-0.1L286.1,139.9z M216.1,218.4c0.1,1.1,0.1,2.3,0.3,3.4c0.7,6.2,3.8,11.8,8.6,15.7c1.3,1.3,3.4,1.3,4.7,0
	c0.1-0.1,0.2-0.2,0.3-0.3c1.5-1.6,1.4-3.4,0-5.1c-0.5-0.6-1-1-1.5-1.6c-4.9-5.1-6.3-12.6-3.6-19.1c2.8-6.6,9.3-10.8,16.5-10.8
	c7.2,0,13.6,4.5,16.2,11.2c2.8,7.4,1.2,13.8-4.3,19.5c-1.1,1.2-1.7,2.7-1.7,4.3c0,0.9,1.7,2.6,2.6,2.5c1.7-0.1,3.3-0.8,4.6-1.9
	c9.9-9.7,10-25.6,0.3-35.5c-9.7-9.9-25.6-10-35.5-0.3C218.8,205.2,216.1,211.6,216.1,218.4L216.1,218.4z M294.3,155.8
	c-13.8,0-25,11.1-25.1,24.9c0,1.4,0.1,2.9,0.4,4.3c0.9,5.7,3.8,10.9,8.2,14.6c1.8,1.5,3.7,1.7,5.3,0s1.5-3.6-0.2-5.3
	c-0.6-0.7-1.3-1.3-1.9-2c-6.4-7.4-5.6-18.6,1.8-25c4.4-3.8,10.3-5.2,15.9-3.7c7.4,1.9,12.7,8.4,13.2,16c0.3,5.8-1.8,10.5-5.9,14.5
	c-1,1.1-1.4,2.6-1.3,4.1c0.4,1.2,1.5,2.1,2.7,2.4c1.6-0.1,3.1-0.8,4.3-1.9c9.9-9.6,10.2-25.4,0.5-35.4
	C307.6,158.6,301.1,155.8,294.3,155.8L294.3,155.8z M280,444.2h14.5v-5.9h-22.3V477c7.4,0,14.5,0,21.7-0.1c0.6,0,1.5-1,1.6-1.7
	c0.1-1.5,0-3-0.1-4.5h-16c0-2.8,0.1-5.4,0-8c-0.1-2.1,0.6-3,2.8-2.9c3,0.2,6-0.1,9,0.1c2,0.1,2.7-0.6,2.8-2.6
	c0.1-2.4-0.5-3.8-3.2-3.4c-1.2,0.1-2.5,0.1-3.7,0c-8.5,0-8.7-0.2-7.4-8.9C279.7,444.7,279.8,444.5,280,444.2z M234.1,438.5
	c0.3,1.1,0.5,2,0.8,2.9c3.3,10.2,6.5,20.3,9.9,30.5c2,6,0.5,5,7.2,5.2c2.1,0,3.2-0.6,3.9-2.6c3.8-11.2,7.7-22.4,11.5-33.5
	c0.2-0.7,0.4-1.5,0.6-2.6c-1.4-0.1-2.5,0-3.6-0.2c-3-0.5-4.5,0.8-5.2,3.7c-0.5,2.4-1.4,4.8-2.2,7.1c-2,6.2-3.9,12.5-6,19.2
	l-7.2-24.3c-1.9-6.2-1.9-6.2-8.2-5.7C235,438.3,234.5,438.4,234.1,438.5z M327.9,470.2c-6.8,1.8-13.3,2.5-18.2-3.7
	c-3.5-4.4-3.7-12.3-0.5-17.1c4.8-7,11.6-6.4,18.8-4.4c0.5-1.9,1.1-3.7,1.5-5.4c-3.2-2-7.8-2.6-13.5-1.9c-8.4,1.1-14.5,6.9-16.3,15.3
	c-1.9,9.2,1.2,17.7,8.2,21.8c5.2,3.1,10.9,3.1,16.6,2.4c4.7-0.6,5.1-1.4,3.7-6.1C328.3,470.9,328.1,470.6,327.9,470.2z M294.2,169.6
	c-6.2-0.1-11.2,4.9-11.3,11.1c-0.1,6.2,4.9,11.2,11.1,11.3c6.2,0.1,11.2-4.9,11.3-11c0.2-6.1-4.7-11.2-10.8-11.4
	C294.4,169.6,294.3,169.6,294.2,169.6z M241.3,207.1c-6.2-0.2-11.4,4.7-11.6,10.9c-0.2,6.2,4.7,11.4,10.9,11.6
	c6.2,0.2,11.4-4.7,11.5-10.9c0.2-6.1-4.5-11.3-10.7-11.6C241.5,207.1,241.4,207.1,241.3,207.1z"/>
<path class="st0" d="M56.9,363.6L28,373.9c-1-2.2-1.8-4.1-2.8-6.5l36.9-12.6c1.2,2.8,2.4,5.4,3.3,8.1c0.1,0.9-0.3,1.8-1,2.4
	c-6,5.3-12,10.5-18.1,15.8c-0.9,0.7-1.6,1.6-2.2,2.6c3.2-0.3,6.4-0.6,9.6-0.8c5.8-0.4,11.6-0.6,17.4-1c1.7-0.1,2.7,0.3,3.2,2
	c0.8,2.3,1.8,4.4,2.9,7l-34.8,17.3c-0.7-1.6-1.2-3.1-2-4.4c-1-1.8-0.5-2.7,1.3-3.6c7.3-3.3,14.5-6.9,21.7-10.3
	c1.1-0.5,2.2-1.1,3.1-2c-0.8,0-1.6,0-2.5,0c-8.7,0.5-17.4,1-26.1,1.7c-2.8,0.2-3.4-1.2-4.4-3.2c-1-2,0-3,1.4-4.1
	C42.2,376.4,49.2,370.3,56.9,363.6z"/>
<path class="st0" d="M413.4,49.5c2.1,1.1,4.1,2.4,6.1,3.9c0.8,1,1.2,2.3,1.2,3.6c0.1,10,0,20,0,29.9l14.5-23.4l6.1,3.7
	c-7,11-13.8,21.8-20.9,32.8c-2-1.1-3.9-2.4-5.7-3.7c-0.7-0.8-1-1.9-0.9-3c0.1-9.9,0.3-19.7,0.5-29.6c0-0.6,0-1.2,0-2.8L398.5,86
	l-5.9-3.7L413.4,49.5z"/>
<path class="st0" d="M325.4,511.1c10.8,0.5,17.5,5.6,19.4,15c2.1,10.5-2,19-11.8,22.6c-5.5,2-11.5,2.6-17.2,3.9
	c-1.8,0.4-2.6-0.3-3-2.2c-1.8-11-3.7-21.9-5.6-32.8c-0.3-1.7-0.1-2.8,1.8-3.2C314.5,513.4,320,512.2,325.4,511.1z M337.4,532.3
	c0.3-8.8-4.3-14.4-12.3-15c-2.4-0.2-4.9,0.6-7.4,0.9c-2.1,0.2-2.4,1.3-2.1,3.2c1.4,7.6,2.6,15.1,3.9,22.7c0.2,0.9,0.9,1.6,1.8,2
	C329.3,547.1,337.1,540.3,337.4,532.3z"/>
<path class="st0" d="M517.7,416c0,10.9-8.9,20.4-19.1,20.2c-11.3-0.1-21.2-9.6-21.2-20.3s8.9-20,18.9-20
	C507.7,396,517.8,405.4,517.7,416z M499.2,428.7c5.7,0,9-2,11.1-5.8c2-3.7,1.6-7.4-0.7-10.9c-2.8-4.3-7.3-7.3-12.3-8.3
	c-4.3-0.9-8.3,0.1-11.2,3.8c-2.5,3.3-3.4,6.9-1.5,10.8C487.3,424,492.8,428,499.2,428.7z"/>
<path class="st0" d="M275.8,56.1c-11.5,0-19.2-7.9-19.2-19.8c0-12.2,8-20.1,20.1-20.1c11.5,0,19,8,19,20S287.8,56.1,275.8,56.1z
	 M288.5,36.1c-1.4-3.4-2.2-7.2-4.2-10.1c-4.3-6.2-13.3-5.6-17.3,0.8c-3.4,5.5-3.1,14.3,0.7,19.5c4.4,6,13.5,5.9,17.4-0.5
	C286.7,43.1,287.2,39.7,288.5,36.1L288.5,36.1z"/>
<path class="st0" d="M390.2,491c10.6,0,19.3,9.7,19.3,21.5c0,10.5-9.3,19.1-20.5,19c-10.5,0-19.1-9.7-19.1-21.3
	C370,499.5,379,491,390.2,491z M402,513.5c-0.5-5.5-2.7-10.9-8-14.5c-4.8-3.3-11.4-2.2-14.7,2.6c-1.2,1.7-1.8,3.7-1.9,5.7
	c-0.3,5.9,2.2,11.7,6.9,15.3c3.5,2.9,7.4,3.6,11.6,1.5S401.9,518.7,402,513.5L402,513.5z"/>
<path class="st0" d="M497.4,450.5c-0.2,0.4-0.4,0.7-0.6,1.1c-4.5,5.3-4.5,5.3-10.8,2.1l-1.4-0.7c-6.4-3.4-8.7-2.8-13.2,3.6
	l11.7,10.5l-4.9,5.6l-28.7-25.4c3.7-5.5,7.6-10.6,12.8-14.5c3.6-2.6,7.6-3.3,11.7-0.9s5.2,6.2,4.5,10.7c-0.1,0.6-0.1,1.2-0.2,2.1
	C485.9,443,490.9,448.6,497.4,450.5z M467.6,453.2c1.8-2.5,3.5-5.2,5-7.9c1.2-2.3,0.1-4.5-1.6-6.2s-4.2-2.3-6.3-1
	c-2.2,1.6-4.1,3.4-5.8,5.5c-0.3,0.3,0.1,1.8,0.6,2.3C461.9,448.3,464.5,450.4,467.6,453.2L467.6,453.2z"/>
<path class="st0" d="M478.2,101.8l-4.1,2.4c-3.1-3.2-5.6-6.5-8.9-9c-6.2-4.8-13.3-3.9-18.4,1.8c-5.3,5.9-5.3,12.9-0.1,18.8
	c4.6,5.2,5.3,5.2,9.9,0.2l2.5-2.7l-5.5-4.7l4.1-4.4l10.7,10.1l-13.5,14.3c-7.2-3.5-13.3-8-17.2-14.9c-6.8-12.3,2.4-27.8,16.7-28.2
	C463.4,85,474.8,92.9,478.2,101.8z"/>
<path class="st0" d="M164.3,44.9c6-3.5,11.8-6.8,18.4-7.8c4.2-0.7,7.9,0.5,10.3,4.3s2.2,7.7-0.2,11.4c-0.4,0.6-0.8,1.2-1.3,2
	c7.7,1.5,9.8,8.8,15.2,13.4c-1.9,1-3.9,1.9-5.9,2.6c-0.9,0.1-1.9-0.2-2.6-0.8c-1.7-1.8-3.2-3.8-4.8-5.7c-3.9-5-7.5-5.4-12.9-1.4
	c2,4.6,4,9.2,6.1,14.2l-6.8,3.1L164.3,44.9z M178.2,57.6c4.4-1.9,9.1-2.9,9.6-8.2c-0.1-2.1-1.1-4.1-2.8-5.4
	c-4.2-2.6-7.8,0.4-11.7,2.3C174.9,50.2,176.4,53.7,178.2,57.6z"/>
<path class="st0" d="M443.6,454.1c0.8,2,1.5,3.6,2.1,5c-3.1,2.1-6.3,3.8-9,6.1c-7.6,6.6-7.1,16.3,1,22.4c6.2,4.7,16.2,2.7,20.2-4.2
	c0.3-0.8,0.2-1.7-0.2-2.4c-1.4-2-3.1-3.9-4.9-6.1l-5.7,4.4c-1.1-1.3-2.2-2.6-3.6-4.2l11.4-9.3c4,4.9,7.8,9.5,11.5,14.2
	c0.4,0.7,0.4,1.5,0.1,2.2c-5.2,7-11.2,13.2-20.3,14.9c-7.2,1.3-12.8-1.6-17.2-7c-4.8-5.8-6-12.3-3.3-19.2
	C428.7,462.7,435.3,457.8,443.6,454.1z"/>
<path class="st0" d="M57,185.3c6.5-4.1,13.1-0.7,19.8-0.9c0,0.4,0,0.8-0.1,1.2c-2.3,6.6-2.3,6.6-9.3,5.5c-0.9-0.1-1.8-0.3-2.8-0.4
	c-6.3-0.6-8.8,1.4-9.9,8.1l14.3,5.8l-2.8,6.9l-36.2-14.5c2.6-6,4.7-11.8,7.6-17.2c2.5-4.6,6.7-6.1,11.3-5.1c4.4,1,6.8,4,7.6,9.4
	C56.8,184.6,56.9,184.9,57,185.3z M38,192.2l11.4,4.6c1.8-4.3,4.3-8.2,1.2-12.3c-1.4-1.6-3.5-2.4-5.6-2.2
	C40.3,183.3,39.5,187.8,38,192.2z"/>
<path class="st0" d="M195.8,519.9c4,6.6,0.6,13.1,0.7,20c-1.9-0.6-3.7-1.3-5.4-2.2c-0.9-0.6-1.5-1.7-1.6-2.8c0-2.1,0.2-4.1,0.6-6.2
	c1.1-7.1-0.4-9.4-7.8-11.5c-1.9,4.7-3.9,9.4-6,14.4c-1.7-0.5-3.4-1.2-5.1-2c-0.8-0.6-1.1-1.6-1.1-2.5c4.2-10.7,8.6-21.4,13-32
	c0.6-0.8,1.5-1.2,2.5-1.1c4.4,1.4,8.8,3,13.1,4.9c6.1,2.9,8.4,6.9,7.7,11.8C205.8,515.8,203,518.3,195.8,519.9z M189.2,500.4
	c-1.7,4.2-3.2,7.9-4.9,12.1c3.2,0.8,5.9,1.9,8.7,2.2s4.8-1.4,5.8-4.1c1-2.4,0.1-5.2-2.2-6.5C194.2,502.7,191.7,501.5,189.2,500.4z"
	/>
<path class="st0" d="M44.3,232.5c-1.1-0.2-2.1-0.4-3.1-0.5c-1.7-0.2-2-1.1-1.7-2.6c0.8-3.9,1.7-7.9,2.6-12.2
	c6,1.3,11.9,2.4,17.7,3.8c0.9,0.4,1.5,1.2,1.7,2.1c0.4,7-0.4,14-3.8,20.2c-3.6,6.7-9.4,9.9-16.9,9.5c-8.2-0.5-14.7-4-17.7-12
	c-3.4-8.9-1.3-17.3,2.9-25.7l4.8,2.6c-1.1,3.6-2.4,6.8-3.1,10.1c-1.8,8.4,2.7,15.1,10.8,16.8c8.2,1.7,14.7-2.6,16.6-11.1
	c0.1-0.6,0.3-1.2,0.4-1.8c0.7-3.8,0.5-4.1-3.4-5c-5.8-1.3-5.8-1.3-7.3,4.6C44.7,231.6,44.5,232,44.3,232.5z"/>
<path class="st0" d="M250.3,533.6c5.5,5.3,3.2,12.4,5,18.5c-5.5,1.3-7.6-0.1-8.3-5c-0.2-1.5-0.4-3.1-0.5-4.6
	c-0.4-6.2-3.2-8.7-10.1-8.4c-0.9,5-1.8,10-2.7,15.3l-7.2-1.3c0.9-5.8,1.8-11.5,2.7-17.1c1-5.9,2.1-11.9,2.9-17.8
	c0.3-2.2,1.2-3.2,3.4-2.8c4.7,0.8,9.5,1.2,14.1,2.4c5.9,1.5,8.9,5.1,9.1,9.8s-2,7.8-7.7,10.4C250.8,533.2,250.5,533.4,250.3,533.6z
	 M237.3,528.8c3.3,0.1,6.2,0.5,9,0.2s4.5-2.4,4.8-5.3c0.4-2.5-1-4.9-3.4-5.7c-2.1-0.8-4.4-1.3-6.6-1.5c-0.9,0.2-1.7,0.8-2,1.6
	C238.5,521.4,238,524.7,237.3,528.8L237.3,528.8z"/>
<path class="st0" d="M493.8,383.9c1-2.5,1.8-4.7,2.8-7.1c6.9,2.8,13.5,5.4,20.2,8c1.8,0.7,3.7,1.3,5.7,1.5c4.4,0.6,7.3-1.2,8.8-5.2
	s0.6-7.6-3.1-9.7c-4.3-2.4-9-4.1-13.6-6.1c-3.7-1.6-7.5-3-11.5-4.6c0.9-2.4,1.8-4.5,2.9-7.1c8.3,3.5,16.6,6.5,24.4,10.4
	c6.5,3.2,8.7,9.1,7.2,16c-1.7,8.1-6.3,13.2-13.1,13.9c-2.7,0.2-5.4-0.1-7.9-1C509,390.1,501.7,387,493.8,383.9z"/>
<path class="st0" d="M169.8,485.3l6.7,4.1c-5.1,7.8-9.6,15.8-15.2,23c-5,6.4-12.8,6.5-20.5,1.5c-7.1-4.6-9.5-11.1-5.8-18.5
	c3.9-7.9,8.8-15.3,13.4-23.1l6.6,4c-2.8,4.5-5.4,8.8-8,13.2c-2.1,3.3-4,6.8-5.6,10.3c-1.7,4-0.2,7.5,3.2,9.7s7.1,2.1,10.2-1
	c1.5-1.6,2.8-3.3,3.9-5.2C162.4,497.5,165.9,491.5,169.8,485.3z"/>
<path class="st0" d="M97.3,150.1l-14.3-24c-1.8-3-3.6-6.1-5.4-9.1c-0.9-1.2-0.8-2.8,0.3-3.9c4.6-5.7,4.6-5.7,11.3-3.1
	c9.5,3.7,19,7.3,28.4,11c1.1,0.4,2.1,0.8,3.4,1.4c-1.2,1.6-2.6,3.2-4,4.6c-0.9,0.7-2,0.9-3.1,0.7c-2.4-0.7-4.6-1.9-7-2.6
	c-1.1-0.2-2.2,0-3.1,0.7c-2.2,2.2-4.2,4.6-6,7.1c-0.5,1-0.5,2.1-0.2,3.2c0.4,1,0.9,1.9,1.6,2.7C102.8,144.8,102.8,144.8,97.3,150.1z
	 M84.1,115.5l9.2,14.5l6.7-8L84.1,115.5z"/>
<path class="st0" d="M48.2,417.4c5.3-1.4,10.6-2.8,15.9-4.2c6.9-1.8,13.9-3.5,20.8-5.4c2.1-0.6,3.3-0.2,4.3,1.7s2.3,3.7,3.7,5.7
	l-24.9,32.7c-1.4-2.1-2.7-4-3.9-5.8c-0.2-0.6-0.2-1.2,0-1.7c0.1-0.4,0.5-0.7,0.7-1c1.8-2.5,5.3-5.3,5-7.5c-0.6-3.5-3.7-6.6-5.8-9.7
	c-0.6-0.6-1.5-0.8-2.3-0.7c-1.3,0.2-2.6,0.6-3.9,1C51.2,424.2,51.2,424.2,48.2,417.4z M74.2,427.8l10.6-13.4l-16.3,4.6L74.2,427.8z"
	/>
<path class="st0" d="M384.8,78.1c-2-0.6-4-1.4-5.9-2.4c-0.7-0.4-1.1-1.8-1.2-2.8c-0.1-3.1,1.1-6.8-0.2-9s-5.3-2.3-8-3.7
	c-2.8-1.5-4.6-0.8-6.1,1.7c-0.4,0.5-0.7,1-1.2,1.5c-4.3,5.1-4.5,5.1-10.7,1.2l18-21c2.3-2.7,4.6-5.3,6.9-8.1c0.8-1.3,2.4-1.7,3.7-1
	c6.7,2.6,6.9,2.5,6.6,9.7c-0.4,10.6-0.9,21.1-1.3,31.7C385.2,76.6,385.1,77.4,384.8,78.1z M369.2,54.3l9.8,3.8
	c0.4-5.8,0.7-11.1,1.1-17.1L369.2,54.3z"/>
<path class="st0" d="M22.5,356.8c-2.2-7.5-2.3-7.7,4.2-11.3c3.2-1.8,4-3.5,3-7.1c-2.2-8.4-1.9-8.5-10.4-9.1c-2.2-0.2-3.4-1-3.6-3.3
	c-0.2-1.6-0.5-3.1-0.8-4.6l13.9,1.6c7.8,0.9,15.7,2,23.5,2.8c2.3,0.2,3.4,0.9,3.9,3.4c1.2,6.6,1.4,6.5-4.4,10l-26.1,15.8
	C24.7,355.5,23.7,356.1,22.5,356.8z M33.3,330.3l2.3,10.2l14.7-8.6L33.3,330.3z"/>
<path class="st0" d="M265,553.5c2.7-7.8,5.3-15.5,8-23.2c1.5-4.2,3-8.4,4.4-12.7c0.3-1.6,1.7-2.7,3.3-2.5c7.2-0.2,7.1-0.2,9.5,6.5
	c3.3,9.6,6.6,19.2,9.9,28.8c0.4,1,0.6,2.1,1,3.2c-0.4,0.1-0.8,0.2-1.2,0.2c-6.5,0.3-6.5,0.3-8.6-5.7c-1.9-5.3-1.9-5.3-8.4-5.2
	s-6.5,0-8.5,6C272.3,554.8,272.3,554.8,265,553.5z M288.1,537.6c-1.8-5.5-3.4-10.5-5.2-16.2l-5.2,16.2H288.1z"/>
<path class="st0" d="M131.5,479.1c-1.4,1.6-2.5,2.9-3.8,4.3l-11.9-10l-7.4,8.6l13.2,11.4l-3.7,4.4l-19.1-16.3l25.2-29.6l18.4,15.7
	l-3.7,4.5l-12.7-10.7l-6.4,7.5L131.5,479.1z"/>
<path class="st0" d="M531.7,182.1l8.1,22.2l-5.3,2.1c-1.9-5.1-3.8-10.1-5.8-15.5l-9.3,3.3c1.8,5,3.4,9.6,5.2,14.6l-5.2,2.1
	l-5.5-14.7l-10.7,3.8c2,5.5,3.9,10.8,5.9,16.5l-5.4,2c-1.6-4.4-3.2-8.7-4.8-12.9c-1-2.8-2-5.7-3.1-8.5c-0.5-1.4-0.4-2.3,1.2-2.9
	c11.1-4,22.3-8,33.4-12.1C530.8,182.2,531.3,182.1,531.7,182.1z"/>
<path class="st0" d="M469.4,140.4c3.6,4.9,7,9.4,10.4,14l-4.6,3.5l-15.1-20.1l31.1-23.4l14.5,19.3l-4.6,3.5l-10.1-13.2l-7.9,6
	l9.3,12.4L488,146l-9.5-12.4L469.4,140.4z"/>
<path class="st0" d="M65.4,158.8l8.1-13.4l4.9,2.8c-2.6,4.5-5.2,8.9-7.9,13.5l9.7,5.8c3.1-5,6-9.9,9.1-14.9l5,2.9
	c-4.3,7.2-8.5,14.2-12.9,21.6l-33.4-19.9l12.4-20.8l5,2.9l-8.4,14.2L65.4,158.8z"/>
<path class="st0" d="M149.8,52.2l3.2,4.8l-13.9,9l5.4,8.4l13.2-8.4l3.1,4.8l-13.1,8.5l6.1,9.6l14.8-9.4l3.1,4.8L150.5,98l-21-32.7
	L149.8,52.2z"/>
<path class="st0" d="M533.6,343.2l7.1,1.6l6.9,1.6c-0.5,2.4-1,4.6-1.5,7.3l-37.4-8.3c0.7-7.2,1.3-14.2,5.3-20.3
	c2.2-3.6,6.3-5.5,10.5-4.8c4.5,0.6,8,2.9,9.7,7.3c1.5,4.1,1.2,8.2,0.3,12.3C534.1,340.9,533.9,341.9,533.6,343.2z M527.4,341.9
	c2.4-3.4,2.7-8.6,0.5-11.4c-1.6-2.3-4.5-3.3-7.2-2.4c-4.1,1.3-4.8,5.1-5.5,8.7c0,0.1-0.1,0.2,0,0.3c0.6,0.9,1.1,2.2,1.9,2.5
	C520.5,340.5,524,341.1,527.4,341.9L527.4,341.9z"/>
<path class="st0" d="M303.8,54c0.8-1.8,1.6-3.4,2.2-4.9c3.2,1.1,6,2.3,9,3.2c1.6,0.5,3.3,0.5,4.9,0c1.5-0.6,3.4-2.1,3.8-3.5
	s-0.6-3.6-1.6-4.9s-2.6-1.9-4-2.8c-1.9-1.2-3.9-2.3-5.8-3.7c-3.4-2.3-5-6.5-3.9-10.4c1-4.1,4-6.4,8-7.5c5.2-1.4,12.1-0.3,17.4,3
	l-2.2,4.6c-3.3-0.8-6.3-1.8-9.4-2.3c-2.6-0.4-5.1,0.2-6.1,3.1s1.1,4.4,3,5.8s4.3,2.5,6.4,3.8c5.3,3.4,7.2,7.2,6.1,12.2
	c-1,4.7-4.9,7.8-10.6,8.7C316,59.1,308.7,57.3,303.8,54z"/>
<path class="st0" d="M547.2,243.1l-5.1-0.7c-0.1-2.8-0.1-5.5-0.4-8.1c-0.1-1.3-0.5-2.6-1.4-3.7c-1.1-1.1-2.9-2.4-4.3-2.3
	c-1.2,0.1-2.9,1.6-3.5,2.9c-1,2.1-1.1,4.6-1.7,6.9c-0.4,2.1-1.1,4.2-1.9,6.2c-2.3,5.1-8.3,7.3-13.4,5c-1-0.5-2-1.1-2.8-1.9
	c-5.9-5.6-6.5-12.9-5.6-20.5c0.1-0.6,1.3-1.2,2.1-1.5c0.5-0.2,1.2,0.1,1.8,0.2s1.4,0.3,1.2,0.7c0.7,4.4,1,8.9,2.2,13.2
	c0.4,1.4,3,3.1,4.5,2.9c1.6-0.2,3.3-2,4.5-3.5c0.8-0.9,0.8-2.5,1-3.9c0.6-2.6,0.9-5.4,1.8-7.8c2.9-7.7,12-9,17.3-2.7
	C547.4,229.1,548.9,237,547.2,243.1z"/>
<path class="st0" d="M82.8,464.9c-1.7-1.9-3.2-3.7-5-5.7l24.7-21.8l-7.7-8.9l4.4-3.9l20.7,23.5l-4.4,4l-8-8.9L82.8,464.9z"/>
<path class="st0" d="M135.4,110.1l-5.7,5l-21.8-24.6l-8.8,7.6l-4-4.3L118.7,73l3.8,4.4l-8.8,8C120.9,93.7,128.1,101.8,135.4,110.1z"
	/>
<path class="st0" d="M480.1,165.8l34.1-18.5l3.7,6.6L489,169.6c2.7,5.1,5.3,9.9,8,15.1l-5.2,2.8L480.1,165.8z"/>
<path class="st0" d="M229.3,22.4c1.8,9,3.4,17.5,5.1,26c1.5,7.4,0.1,6.2,7.2,5c3.5-0.6,6.9-1.3,10.7-2c0.4,1.9,0.7,3.6,1.1,5.7
	l-24.1,4.7c-1.6-8-3.1-15.7-4.6-23.5c-0.7-3.7-1.2-7.4-2.2-11c-0.8-3-0.1-4.3,3-4.4C226.8,22.9,228.1,22.7,229.3,22.4z"/>
<path class="st0" d="M367.8,540.7l-7.2,2.2c-3.9-12.4-7.6-24.6-11.5-37l7.2-2.2L367.8,540.7z"/>
<path class="st0" d="M534.6,274.6c4.5,0.1,8,3.7,8,8.2c0,4.6-3.8,8.2-8.3,8.2c-4.6,0-8.2-3.8-8.2-8.3c0-4.5,3.7-8.1,8.1-8
	C534.3,274.6,534.5,274.6,534.6,274.6z"/>
<path class="st0" d="M41.8,282.8c0.1,4.4-3.4,8.2-7.8,8.3c-0.1,0-0.3,0-0.4,0c-4.5-0.1-8.1-3.7-8.1-8.1c-0.2-4.4,3.3-8.2,7.8-8.3
	c0.1,0,0.2,0,0.4,0c4.3-0.2,8,3.2,8.2,7.5C41.8,282.4,41.8,282.6,41.8,282.8z"/>
<path d="M183.4,354.8c6.6,0,12.6,0.1,18.6-0.1c0.8,0,1.9-1.7,2.1-2.8c3.5-12.9,7-25.9,10.4-38.8c6.4-24.2,12.9-48.3,19.3-72.5
	c1-3.8,3.4-5.8,6.8-5.8s5.6,1.9,6.7,5.8c7.3,27.1,14.5,54.1,21.7,81.2c5.7,21.4,11.4,42.9,17.1,64.4c0.2,0.7,0.4,1.4,0.5,2.1
	c0.8,3.4-0.2,6.3-2.9,7.9c-2.7,1.6-6.1,1.2-8.3-1c-8.3-7.4-16.5-14.9-24.7-22.4L220.2,345c-1.4,5.4-2.8,10.3-4.1,15.2
	c-2.8,10.3-5.5,20.6-8.2,31c-1,3.9-3.4,5.9-6.6,6c-4.4,0.1-7.5-3.6-6.7-8.1c0.3-1.6,0.8-3.2,1.2-4.8s0.8-3.2,1.3-5.4h-3.5
	c-9.6,0-19.1-0.1-28.7,0c-2.4,0-3.2-0.7-3.2-3.2c0.1-59.7,0.1-119.3,0-179c0-2.4,0.7-3.3,3.2-3.2c6.1,0.1,12.2,0.1,18.7,0.1
	L183.4,354.8z M228.3,334.1l38.8,35.2l0.5-0.3c-5.2-19.6-10.5-39.3-15.9-59.4L228.3,334.1z M241,269.1h-0.6l-11.8,44.4
	c6.4-5.9,12.3-12,18.1-18.2c0.6-0.7,0.8-1.6,0.6-2.5C245.2,284.9,243.1,277,241,269.1L241,269.1z"/>
<path d="M365.2,305.1v73.6h-21.8v-4.8c0-48.7,0-97.3,0-146c0.2-2.8-0.9-5.5-2.9-7.4c-4.2-4.2-8-8.6-12.2-13.1l15.5-17.1
	c2.9,3.1,5.5,6,7.6,8.3c5-2.5,9.5-5.6,14.4-6.9c13.5-3.8,27.7,4.2,32.8,18.1c1.6,4.3,2.4,8.8,2.5,13.4c0.3,16.2,0.1,32.4,0.1,48.7
	c0.1,6.7-1.7,13.3-5.2,18.9c-0.9,1.4-1.1,2.4-0.1,3.9c3.7,5.7,5.5,12.4,5.4,19.2c0,20.4,0,40.8,0,61.1v3.7h-22v-4
	c0-19.9,0-39.7,0-59.6c0-1.9-0.2-3.7-0.8-5.5c-0.8-2.8-3.5-4.7-6.4-4.5L365.2,305.1z M365.4,280.6c2.7,0.1,5.5,0.1,8.2-0.1
	c3.6-0.5,5.8-3.9,5.8-8.8c0-15.9,0-31.8,0-47.7c0-0.9,0-1.9-0.2-2.8c-0.5-3.4-3.6-6.3-6.7-6.4c-3.3,0.1-6.2,2.5-6.8,5.7
	c-0.3,1.3-0.4,2.7-0.4,4c0,17.6,0,35.1,0,52.7C365.2,278.3,365.3,279.3,365.4,280.6L365.4,280.6z"/>
<path d="M130.3,230.8V218c-3.1,0-6-0.3-8.8,0.1c-3.2,0.5-5.2,3.9-5.3,7.9c0,7.6,0,15.2,0,22.8v95.4c0,8.5,2.2,10.7,10.7,10.6
	c1,0,2-0.1,3.2-0.2v-43.1l-7-0.3v-9.4c0-4,0.1-7.9,0-11.8c0-2,0.6-2.8,2.6-2.8c7.8,0.1,15.6,0.1,23.4,0c2.8-0.1,3.2,1.1,3.2,3.5
	c-0.1,25.6,0,51.1,0,76.7c0,3-0.1,6,0,9c0,1.6-0.4,2.5-2.2,2.5c-9.9-0.1-19.8,0.3-29.6-0.2c-11.8-0.7-22.2-10.6-25-23.2
	c-0.7-3.2-1.1-6.5-1.1-9.9c-0.1-39.5-0.1-79,0-118.5c0-11.9,3.9-22,14.1-29c4.2-2.9,9.2-4.5,14.3-4.5c8.8,0,17.7,0.1,26.5,0
	c2.4,0,3.2,0.8,3.2,3.2c-0.1,10.3-0.1,20.6,0,30.9c0,2.4-0.6,3.3-3.2,3.2C143,230.7,136.9,230.8,130.3,230.8z"/>
<path d="M445.8,354.3v-42.9l-7-0.4c0-3.4,0-6.7,0-10c0-3.9-0.1-7.7,0.1-11.5c0-0.8,1-2.2,1.6-2.3c9-0.1,18-0.1,27.3-0.1v91.5
	c-1.1,0.1-2.2,0.2-3.3,0.2c-7.2,0-14.4-0.4-21.5,0.1c-21.5,1.4-33.2-16.2-33-33.1c0.3-29.2,0.1-58.4,0.1-87.6
	c0-12.3-0.4-24.6,0.4-36.8c0.9-15,13.4-28.6,30.2-27.9c7.8,0.4,15.6,0.1,23.4,0.1c1.2,0,2.5,0.1,3.8,0.2v37.1
	c-6.9,0-13.6,0.1-20.3-0.1c-0.5,0-1.5-1.5-1.5-2.3c-0.2-3.4-0.1-6.8-0.1-10.5c-3,0-5.7-0.3-8.3,0.1c-3.2,0.5-4.9,2.9-5.5,6
	c-0.2,1.2-0.3,2.5-0.2,3.7c0,38.6,0.1,77.1-0.1,115.7C431.8,353.5,436.2,356,445.8,354.3z"/>
<path d="M314.5,306.2l-34,31.7c-1.3-5-2.6-9.3-3.5-13.8c-0.2-0.9,0.9-2.4,1.8-3.2c8.1-7.7,16.4-15.3,25-23.4l-21.5-22.1l-8.9,33.2
	h-0.6c-1.7-6.3-3.3-12.7-5.2-19c-1.2-4-1.2-8.2,0-12.1c6.7-24.7,13.3-49.5,19.9-74.2c1.1-4.3,3.5-6.4,6.9-6.4s5.7,2.1,6.8,6.1
	c13.1,49,26.1,98.1,39.2,147.1c0.9,3.6-0.1,6.6-2.8,8.1s-5.6,1.5-7.8-0.7c-1.3-1.4-2.2-3.2-2.7-5.1c-3.9-14.2-7.6-28.5-11.4-42.7
	C315.3,309,314.9,307.9,314.5,306.2z M307.8,280.9l-13.3-49.8c-2.6,8-4.5,15.9-6.9,23.7c-1.2,3.8-0.9,6.4,2.2,9.2
	C296.2,269.7,302.2,275.6,307.8,280.9z"/>
<path d="M284.2,420.5H144.8c-0.9,0.1-1.9,0.1-2.8,0c-2.5-0.3-4-1.7-4.1-4.3c-0.3-2.3,1.3-4.3,3.6-4.6c0,0,0.1,0,0.1,0
	c1-0.2,2.1-0.2,3.1-0.2c93.1,0,186.3,0,279.4,0c1,0,2.1,0.1,3.1,0.2c2.2,0.3,3.7,2.3,3.5,4.4c0.1,2.3-1.7,4.3-4,4.4
	c-1,0.1-2.1,0.1-3.1,0.1L284.2,420.5z"/>
<path d="M286.1,139.9h138.5c1.2,0,2.5,0,3.7,0.1c2.2,0,4,1.8,4,4c0.4,2.2-1.1,4.2-3.2,4.7c-1.1,0.3-2.2,0.4-3.4,0.4
	c-93.2,0-186.3,0-279.5,0c-1.4,0.1-2.7-0.1-4-0.6c-2.1-0.8-3.3-2.7-2.5-4.7c0.8-1.6,2-2.9,3.6-3.7c0.9-0.6,2.4-0.2,3.7-0.2
	L286.1,139.9z"/>
<path d="M216.1,218.4c0-13.9,11.2-25.1,25.1-25.1c13.9,0,25.1,11.2,25.1,25.1c0,6.7-2.7,13.2-7.5,17.9c-1.3,1.1-2.9,1.8-4.6,1.9
	c-0.9,0-2.6-1.6-2.6-2.5c0-1.6,0.6-3.1,1.7-4.3c5.5-5.7,7-12.1,4.3-19.5c-2.6-6.7-9-11.1-16.2-11.2c-7.2-0.1-13.7,4.2-16.5,10.8
	c-2.8,6.5-1.4,14,3.6,19.1c0.5,0.5,1.1,1,1.5,1.6c1.4,1.7,1.5,3.4,0,5.1c-1.1,1.5-3.2,1.7-4.7,0.6c-0.1-0.1-0.2-0.2-0.3-0.3
	c-4.8-3.9-7.9-9.6-8.6-15.7C216.2,220.6,216.2,219.5,216.1,218.4z"/>
<path d="M294.3,155.8c13.8,0,25,11.1,25.1,24.9c0,6.8-2.7,13.3-7.6,18c-1.2,1.1-2.7,1.8-4.3,1.9c-1.3-0.3-2.3-1.2-2.7-2.4
	c-0.2-1.5,0.3-2.9,1.3-4.1c4.1-4,6.2-8.7,5.9-14.5c-0.6-9.7-9-17.1-18.8-16.4c-5.8,0.4-11,3.6-14,8.6c-3.9,6.5-3.2,14.9,1.8,20.6
	c0.6,0.7,1.3,1.3,1.9,2c1.6,1.7,1.8,3.6,0.2,5.3s-3.5,1.5-5.3,0c-4.4-3.7-7.3-8.9-8.2-14.6c-2.3-13.6,6.8-26.5,20.4-28.9
	C291.4,155.9,292.8,155.8,294.3,155.8z"/>
<path d="M280,444.2c-0.1,0.3-0.3,0.5-0.4,0.8c-1.3,8.7-1.1,8.9,7.4,8.9c1.2,0.1,2.5,0.1,3.7,0c2.8-0.4,3.3,1,3.2,3.4
	c-0.1,2-0.7,2.7-2.8,2.6c-3-0.1-6,0.1-9-0.1c-2.2-0.1-2.9,0.8-2.8,2.9c0.1,2.5,0,5.1,0,8h16c0.2,1.5,0.2,3,0.1,4.5
	c-0.1,0.6-1,1.7-1.6,1.7c-7.1,0.1-14.3,0.1-21.7,0.1v-38.7h22.3v5.9L280,444.2z"/>
<path d="M234.1,438.5c0.4-0.1,0.8-0.3,1.3-0.3c6.4-0.5,6.4-0.5,8.2,5.7l7.2,24.3c2.1-6.7,4.1-13,6-19.2c0.7-2.4,1.7-4.7,2.2-7.1
	c0.6-3,2.2-4.2,5.2-3.7c1.1,0.2,2.2,0.1,3.6,0.2c-0.2,1.1-0.4,1.9-0.6,2.6c-3.8,11.2-7.7,22.3-11.5,33.5c-0.7,2-1.8,2.7-3.9,2.6
	c-6.6-0.2-5.2,0.8-7.2-5.2c-3.4-10.1-6.6-20.3-9.9-30.5C234.6,440.5,234.4,439.6,234.1,438.5z"/>
<path d="M327.9,470.2c0.2,0.3,0.3,0.7,0.5,1c1.4,4.6,1,5.4-3.7,6.1c-5.7,0.8-11.4,0.7-16.6-2.4c-6.9-4.1-10.1-12.6-8.2-21.8
	c1.8-8.5,8-14.2,16.3-15.3c5.7-0.7,10.3-0.1,13.5,1.9c-0.5,1.7-1,3.4-1.5,5.4c-7.2-2-14.1-2.6-18.8,4.4c-3.2,4.8-3,12.6,0.5,17.1
	C314.6,472.7,321.1,472,327.9,470.2z"/>
<path d="M294.2,169.6c6.2,0.1,11.1,5.1,11.1,11.3s-5.1,11.1-11.3,11.1c-6.1-0.1-11.1-5.1-11.1-11.2c-0.1-6.1,4.7-11.1,10.8-11.2
	C293.9,169.6,294.1,169.6,294.2,169.6z"/>
<path d="M241.3,207.1c6.2,0.2,11.1,5.3,11,11.5s-5.3,11.1-11.5,11c-6.2-0.2-11.1-5.3-11-11.5c0.1-6.2,5.1-11.1,11.3-11
	C241.2,207.1,241.3,207.1,241.3,207.1z"/>
<path d="M337.4,532.3c-0.2,8-8.1,14.8-16.1,13.8c-0.9-0.4-1.5-1.1-1.8-2c-1.4-7.6-2.6-15.1-3.9-22.7c-0.3-1.9,0-3,2.1-3.2
	c2.5-0.2,5-1,7.4-0.9C333.1,517.9,337.6,523.5,337.4,532.3z"/>
<path d="M499.2,428.7c-6.4-0.8-11.9-4.7-14.6-10.5c-1.9-3.8-1.1-7.5,1.5-10.8c2.9-3.7,6.8-4.7,11.2-3.8c5.1,1,9.5,4,12.3,8.3
	c2.3,3.5,2.7,7.2,0.7,10.9C508.2,426.8,504.8,428.8,499.2,428.7z"/>
<path d="M288.5,36.1c-1.2,3.6-1.8,6.9-3.5,9.7c-3.8,6.4-12.9,6.5-17.4,0.5c-3.8-5.2-4.2-14-0.7-19.5c4-6.4,13-7,17.3-0.8
	C286.3,28.9,287.1,32.7,288.5,36.1z"/>
<path d="M402,513.5c-0.1,5.2-2,8.6-6.1,10.7s-8.1,1.4-11.6-1.5c-4.6-3.7-7.2-9.4-6.9-15.3c0.2-5.8,5.1-10.4,10.9-10.2
	c2.1,0.1,4,0.7,5.7,1.9C399.3,502.6,401.5,508,402,513.5z"/>
<path d="M467.6,453.2c-3.2-2.8-5.7-4.9-8.1-7.2c-0.5-0.5-0.9-1.9-0.6-2.3c1.7-2.1,3.6-3.9,5.8-5.5c2-1.3,4.4-0.8,6.3,1
	s2.8,3.9,1.6,6.2C471.1,448,469.4,450.6,467.6,453.2z"/>
<path d="M178.2,57.6c-1.7-3.9-3.3-7.5-4.9-11.2c3.9-2,7.4-4.9,11.7-2.3c1.7,1.3,2.7,3.2,2.8,5.4C187.2,54.7,182.5,55.7,178.2,57.6z"
	/>
<path d="M38.1,192.2c1.4-4.4,2.2-8.9,7-9.9c2.1-0.2,4.2,0.6,5.6,2.2c3.1,4,0.6,8-1.2,12.3L38.1,192.2z"/>
<path d="M189.2,500.4c2.5,1.1,5,2.3,7.4,3.7c2.3,1.3,3.2,4.1,2.2,6.5c-1,2.8-2.9,4.5-5.8,4.1s-5.5-1.3-8.7-2.2
	C185.9,508.3,187.4,504.7,189.2,500.4z"/>
<path d="M237.3,528.8c0.7-4.2,1.1-7.5,1.8-10.7c0.3-0.8,1.1-1.5,2-1.6c2.3,0.2,4.5,0.7,6.6,1.5c2.4,0.8,3.8,3.2,3.4,5.7
	c-0.3,2.9-2,5-4.8,5.3S240.6,529,237.3,528.8z"/>
<path d="M84.1,115.5l15.9,6.5l-6.7,8L84.1,115.5z"/>
<path d="M74.2,427.8l-5.8-8.8l16.3-4.6L74.2,427.8z"/>
<path d="M369.2,54.3L380,41.1c-0.4,6-0.7,11.3-1.1,17.1L369.2,54.3z"/>
<path d="M33.3,330.3l17,1.6l-14.7,8.6L33.3,330.3z"/>
<path d="M288.1,537.6h-10.5l5.2-16.2C284.7,527.1,286.3,532.1,288.1,537.6z"/>
<path d="M527.4,341.9c-3.4-0.8-6.9-1.4-10.3-2.4c-0.8-0.2-1.3-1.6-1.9-2.5c0-0.1,0-0.2,0-0.3c0.7-3.6,1.4-7.4,5.5-8.7
	c2.7-0.9,5.6,0.1,7.2,2.4C530.1,333.2,529.8,338.5,527.4,341.9z"/>
<path class="st1" d="M228.3,334.1l23.4-24.6c5.4,20.1,10.6,39.8,15.9,59.5l-0.5,0.3L228.3,334.1z"/>
<path class="st1" d="M241,269.1c2.1,7.9,4.2,15.8,6.2,23.7c0.2,0.9-0.1,1.8-0.6,2.5c-5.8,6.2-11.7,12.3-18.1,18.2l11.8-44.4
	L241,269.1z"/>
<path class="st1" d="M365.4,280.6c-0.1-1.3-0.2-2.3-0.2-3.3c0-17.6,0-35.1,0-52.7c0-1.3,0.1-2.7,0.4-4c0.6-3.3,3.5-5.7,6.8-5.7
	c3.1,0.1,6.1,3,6.7,6.4c0.1,0.9,0.2,1.9,0.2,2.8c0,15.9,0,31.8,0,47.7c0,4.9-2.2,8.3-5.8,8.8C370.8,280.7,368.1,280.8,365.4,280.6z"
	/>
<path class="st1" d="M307.8,280.9c-5.6-5.3-11.7-11.3-18-16.9c-3.1-2.7-3.4-5.4-2.2-9.2c2.5-7.8,4.3-15.8,6.9-23.7L307.8,280.9z"/>
</svg>
