<svg id="logo" x="0px" y="0px" viewBox="0 0 169 36" xmlns="http://www.w3.org/2000/svg" xmlns:xlink= "http://www.w3.org/1999/xlink">
<style type="text/css">
	.st0{fill:#00BCD6;}
	.st1{fill-rule:evenodd;clip-rule:evenodd;fill:#231F20;}
	.st2{fill:#231F20;}
</style>
<title>Hamstudy</title>
<g id="Hamstudy">
	<path id="Fill-102" class="st0" d="M73.8,32.8l0.7-0.7c2.1,2,4.5,3.1,7.4,3.1c3.5,0,5.8-1.9,5.8-4.4v-0.1c0-2.4-1.4-3.6-6.2-4.6
		c-4.9-1-6.9-2.5-6.9-5.5v-0.1c0-2.9,2.7-5.2,6.6-5.2c2.8,0,5,0.9,6.9,2.4l-0.6,0.8c-1.8-1.5-4-2.3-6.3-2.3c-3.3,0-5.5,2-5.5,4.2
		v0.1c0,2.3,1.4,3.6,6.3,4.6c5,1,6.8,2.6,6.8,5.5v0.1c0,3.1-2.7,5.4-6.8,5.4C78.7,36,76.1,34.9,73.8,32.8"></path>
	<path id="Fill-104" class="st0" d="M98.5,16.4h-7.2v-0.9h15.4v0.9h-7.2v19.3h-1C98.5,35.7,98.5,16.4,98.5,16.4z"></path>
	<path id="Fill-106" class="st0" d="M110.4,27V15.5h1V27c0,5.4,2.9,8.2,7.3,8.2s7.2-2.7,7.2-8.1V15.5h1v11.4c0,6-3.3,9.1-8.2,9.1
		C113.8,36,110.4,33,110.4,27"></path>
	<path id="Fill-108" class="st0" d="M133.5,16.4v18.4h5.6c5.8,0,9.7-4,9.7-9.1v-0.1c0-5.1-3.9-9.2-9.7-9.2
		C139.1,16.4,133.5,16.4,133.5,16.4z M132.5,15.5h6.6c6.3,0,10.7,4.4,10.7,10.1v0.1c0,5.7-4.4,10.1-10.7,10.1h-6.6V15.5z"></path>
	<path id="Fill-110" class="st0" d="M159.4,27.4l-8.6-11.9h1.2l7.9,11l7.9-11h1.2l-8.6,11.9v8.3h-1L159.4,27.4L159.4,27.4z"></path>
	<path id="Fill-112" class="st0" d="M0,15.5h3.5v8.4h9.6v-8.4h3.6v20.2h-3.6v-8.5H3.5v8.5H0V15.5z"></path>
	<path id="Fill-114" class="st0" d="M49.6,15.5h3.8l6.1,9.5l6.1-9.5h3.8v20.2H66V21.2l-6.4,9.5h-0.1l-6.3-9.5v14.4h-3.5V15.5H49.6z"></path>
	<path id="Fill-116" class="st0" d="M28.3,26.2L33.2,15l4.9,11.1h-9.8V26.2z M45,33.1L34.5,9.5c1-0.5,1.7-1.6,1.7-2.8
		c0-1.7-1.4-3.1-3.1-3.1C31.4,3.6,30,5,30,6.7c0,1.2,0.7,2.3,1.7,2.8L21.3,33.1c-0.4,0.9,0,1.9,0.9,2.3c0.9,0.4,1.9,0,2.3-0.9
		l2.2-4.9h12.9l2.2,4.9c0.3,0.7,0.9,1,1.6,1c0.2,0,0.5,0,0.7-0.1C45,35,45.4,34,45,33.1L45,33.1z"></path>
	<path id="Fill-118" class="st0" d="M20.7,0.3c0.1-0.2,0.5-0.3,0.7-0.2c0.3,0.1,0.3,0.5,0.2,0.7c-1,1.7-1.5,3.7-1.5,5.7
		c0,1.9,0.5,3.7,1.3,5.4c0.1,0.1,0.1,0.3,0,0.4c0,0.1-0.1,0.2-0.3,0.3c-0.1,0-0.2,0.1-0.2,0.1c-0.2,0-0.4-0.1-0.5-0.3
		c-1-1.8-1.5-3.8-1.5-5.9C19,4.3,19.6,2.2,20.7,0.3"></path>
	<path id="Fill-120" class="st0" d="M26.1,10.7c0.1,0,0.2,0,0.2-0.1c0.2-0.1,0.3-0.4,0.2-0.7c-0.6-1-0.8-2.2-0.8-3.3
		c0-1.3,0.4-2.6,1.1-3.8c0.2-0.2,0.1-0.6-0.2-0.7C26.4,2,26.1,2,25.9,2.3c-0.8,1.3-1.2,2.8-1.2,4.3c0,1.3,0.3,2.7,1,3.8
		C25.7,10.6,25.9,10.7,26.1,10.7"></path>
	<path id="Fill-122" class="st0" d="M45.3,0.3c-0.1-0.2-0.5-0.3-0.7-0.2c-0.3,0.1-0.3,0.5-0.2,0.7c1,1.7,1.5,3.7,1.5,5.7
		c0,1.9-0.5,3.7-1.3,5.4c-0.1,0.1-0.1,0.3,0,0.4c0,0.1,0.1,0.2,0.3,0.3c0.1,0,0.2,0.1,0.2,0.1c0.2,0,0.4-0.1,0.5-0.3
		c1-1.8,1.5-3.8,1.5-5.9C47,4.3,46.4,2.2,45.3,0.3"></path>
	<path id="Fill-124" class="st0" d="M39.9,10.7c-0.1,0-0.2,0-0.2-0.1c-0.2-0.1-0.3-0.4-0.2-0.7c0.5-1,0.8-2.2,0.8-3.3
		c0-1.3-0.4-2.6-1.1-3.8c-0.2-0.2-0.1-0.6,0.2-0.7C39.6,2,39.9,2,40.1,2.3c0.8,1.3,1.2,2.8,1.2,4.3c0,1.3-0.3,2.7-1,3.8
		C40.3,10.6,40.1,10.7,39.9,10.7"></path>
</g>
<g id="SignalStuff">
	<g id="by">
		<path d="M100.1,10.5v0.9h-0.4v-6h0.4v2.8c0.4-0.6,0.9-1,1.7-1c1,0,2,0.8,2,2.2l0,0c0,1.4-1,2.2-2,2.2
			C101,11.5,100.5,11.1,100.1,10.5z M103.5,9.4L103.5,9.4c0-1.1-0.8-1.8-1.7-1.8c-0.9,0-1.7,0.7-1.7,1.8l0,0c0,1.1,0.8,1.8,1.7,1.8
			C102.8,11.2,103.5,10.5,103.5,9.4z"></path>
		<path d="M108.3,7.2h0.4l-1.8,4.4c-0.4,0.9-0.8,1.2-1.4,1.2c-0.3,0-0.6-0.1-0.8-0.2l0.1-0.4c0.2,0.1,0.4,0.2,0.7,0.2
			c0.4,0,0.7-0.3,1-1l-2-4.2h0.5l1.8,3.8L108.3,7.2z"></path>
	</g>
	<g id="Signal">
		<path id="Path" class="st1" d="M118.4,0.2l0.5,1.3l0.2-0.4h1.2c0.1-0.2,0.2-0.3,0.5-0.3s0.5,0.2,0.5,0.5s-0.2,0.5-0.5,0.5
			c-0.2,0-0.4-0.1-0.5-0.3h-1l-0.4,0.9L118.4,1l-0.5,1.3L117.3,1l-0.5,1.3L116.2,1L116,1.4h-1.2c0,0.1-0.2,0.2-0.3,0.3v0.7l1,0.3
			l-1.3,0.4l1.3,0.4L114.2,4l1.3,0.4l-1.3,0.4l0.3,0.1v0.9c0.1,0,0.2,0.2,0.3,0.3h1l0.4-0.9l0.5,1.3l0.5-1.3l0.5,1.3l0.5-1.3
			l0.5,1.3l0.2-0.4h1.2c0.1-0.2,0.2-0.3,0.5-0.3s0.5,0.2,0.5,0.5c0,0.2-0.1,0.4-0.3,0.5v0.7l1,0.3l-1.3,0.4l1.3,0.4L120.5,9l1.3,0.4
			l-1.3,0.4l0.3,0.1v0.9c0.2,0.1,0.3,0.2,0.3,0.5s-0.2,0.5-0.5,0.5c-0.2,0-0.4-0.1-0.5-0.3h-1l-0.4,0.9l-0.5-1.3l-0.5,1.3l-0.5-1.3
			l-0.5,1.3l-0.5-1.3l-0.2,0.4h-1.2c-0.1,0.2-0.2,0.3-0.5,0.3s-0.5-0.2-0.5-0.5s0.2-0.5,0.5-0.5c0.2,0,0.4,0.1,0.5,0.3h1l0.4-0.9
			l0.5,1.3l0.5-1.3l0.5,1.3l0.5-1.3l0.5,1.3l0.2-0.4h1.2c0.1-0.1,0.2-0.2,0.3-0.3v-0.7l-1-0.3l1.3-0.4L119.4,9l1.3-0.4l-1.3-0.4
			l1.3-0.4l-0.3-0.1V6.8c-0.1,0-0.3-0.2-0.3-0.3h-1l-0.4,0.9l-0.5-1.3l-0.5,1.3l-0.5-1.3l-0.5,1.3l-0.5-1.3L116,6.5h-1.2
			c-0.1,0.2-0.2,0.3-0.5,0.3s-0.5-0.2-0.5-0.5c0-0.2,0.1-0.4,0.3-0.5V5.1l-1-0.3l1.3-0.4L113.2,4l1.3-0.4l-1.3-0.4l1.3-0.4l-0.3-0.1
			V1.8c-0.2-0.1-0.3-0.2-0.3-0.5s0.2-0.5,0.5-0.5c0.2,0,0.4,0.1,0.5,0.3h1l0.4-0.9l0.5,1.3l0.5-1.3l0.5,1.3L118.4,0.2z"></path>
		<path id="Shape" class="st2" d="M123.6,4.4L123.6,4.4c0,0.4-0.1,0.4-0.4,0.4h-0.1c-0.3,0-0.4-0.1-0.4-0.4l0,0
			c0-0.3,0.1-0.4,0.4-0.4h0.1C123.5,4.1,123.6,4.1,123.6,4.4z M123.5,6.1V11c0,0.1-0.1,0.2-0.2,0.2H123c-0.1,0-0.2,0-0.2-0.2V6.1
			c0-0.1,0-0.2,0.2-0.2h0.3C123.5,5.9,123.5,6,123.5,6.1z"></path>
		<path id="Shape_1_" class="st2" d="M126.9,5.8c0.6,0,1.2,0.1,1.7,0.3c0.3,0.1,0.4,0.2,0.4,0.6v4.8c0,1.3-0.6,2.2-2.2,2.2
			c-0.8,0.1-1.6-0.4-2-1.1c0,0-0.1-0.1,0-0.2c0-0.1,0.1-0.1,0.1-0.1l0.2-0.1c0,0,0.1-0.1,0.2,0c0.1,0,0.1,0.1,0.1,0.1
			c0.3,0.5,0.8,0.9,1.4,0.8c1,0,1.5-0.6,1.5-1.5V11c-0.5,0.2-1.1,0.3-1.6,0.3c-1.4,0-2-0.7-2-2V7.9C124.7,6.5,125.4,5.8,126.9,5.8z
			 M126.9,6.4c-1.1,0-1.5,0.5-1.5,1.5v1.3c-0.1,0.4,0.1,0.8,0.4,1c0.3,0.3,0.7,0.4,1,0.3c0.5,0,1-0.1,1.5-0.3V6.9
			c0-0.2,0-0.2-0.2-0.3C127.7,6.5,127.3,6.4,126.9,6.4L126.9,6.4z"></path>
		<path id="Shape_2_" class="st2" d="M132.6,5.8c1.4,0,2,0.7,2,2V11c0,0.1-0.1,0.2-0.2,0.2h-0.3c-0.1,0-0.2,0-0.2-0.2V7.8
			c0-0.9-0.4-1.4-1.4-1.4c-0.5,0-0.9,0.1-1.4,0.2c-0.1,0-0.2,0.1-0.2,0.3V11c0,0.1,0,0.2-0.2,0.2h-0.3c-0.1,0-0.2,0-0.2-0.2V6.7
			c0-0.3,0.1-0.4,0.4-0.6C131.3,5.9,132,5.8,132.6,5.8L132.6,5.8z"></path>
		<path id="Shape_3_" class="st2" d="M137.9,5.8c1.6,0,2,0.9,2,2v2.7c0,0.4-0.1,0.5-0.4,0.6c-0.5,0.2-1.1,0.3-1.7,0.3
			c-1.8,0-2.2-0.6-2.2-1.6c0-1.2,0.6-1.6,2.2-1.6c0.4,0,0.9,0,1.3,0.1V7.8c0-0.8-0.3-1.4-1.4-1.4c-0.6-0.1-1.1,0.2-1.4,0.7
			c-0.1,0.1-0.1,0.1-0.3,0.1l-0.2-0.1c-0.1-0.1-0.2-0.1-0.1-0.3C136.2,6.1,137,5.7,137.9,5.8L137.9,5.8z M137.8,8.7
			c-1.1,0-1.5,0.3-1.5,1s0.3,1,1.5,1c0.4,0,0.8,0,1.2-0.2c0.2-0.1,0.2-0.1,0.2-0.3V8.8C138.7,8.7,138.3,8.7,137.8,8.7L137.8,8.7z"></path>
		<path id="Shape_4_" class="st2" d="M141.7,11.1h-0.3c-0.1,0-0.2,0-0.2-0.2V3.8c0-0.1,0-0.2,0.2-0.2h0.3c0.1,0,0.2,0,0.2,0.2V11
			C141.9,11.1,141.8,11.1,141.7,11.1z"></path>
	</g>
	<g id="Stuff" transform="translate(92.000000, 0.000000)">
		<path id="Path_1_" class="st1" d="M56.3,0.2l0.5,1.3L57,1.1h1.2c0.1-0.2,0.2-0.3,0.5-0.3s0.5,0.2,0.5,0.5S59,1.8,58.7,1.8
			c-0.2,0-0.4-0.1-0.5-0.3h-1l-0.4,0.9L56.3,1l-0.5,1.3L55.2,1l-0.5,1.3L54.1,1L54,1.4h-1.2c0,0.1-0.2,0.2-0.3,0.3v0.7l1,0.3
			l-1.3,0.4l1.3,0.4L52.1,4l1.3,0.4l-1.3,0.4L52.4,5v0.9c0.1,0,0.2,0.2,0.3,0.3h1l0.4-0.9l0.5,1.3l0.5-1.3l0.5,1.3l0.5-1.3l0.5,1.3
			L57,6.2h1.2c0.1-0.2,0.2-0.3,0.5-0.3s0.5,0.2,0.5,0.5c0,0.2-0.1,0.4-0.3,0.5v0.7l1,0.3l-1.3,0.4l1.3,0.4l-1.3,0.4l1.3,0.4L58.6,10
			l0.3,0.1V11c0.2,0.1,0.3,0.2,0.3,0.5S59,12,58.7,12c-0.2,0-0.4-0.1-0.5-0.3h-1l-0.4,0.9l-0.5-1.3l-0.5,1.3l-0.5-1.3l-0.5,1.3
			l-0.5-1.3L54,11.7h-1.2c-0.1,0.2-0.2,0.3-0.5,0.3s-0.5-0.2-0.5-0.5S52,11,52.3,11c0.2,0,0.4,0.1,0.5,0.3h1l0.4-0.9l0.5,1.3
			l0.5-1.3l0.5,1.3l0.5-1.3l0.5,1.3l0.2-0.4h1.2c0.1-0.1,0.2-0.2,0.3-0.3v-0.7l-1-0.3l1.3-0.4l-1.3-0.4l1.3-0.4l-1.3-0.4L58.7,8
			l-0.3-0.1V7c-0.1,0-0.3-0.2-0.3-0.3h-1l-0.4,0.9l-0.5-1.3l-0.5,1.3l-0.5-1.3l-0.5,1.3l-0.5-1.3L54,6.5h-1.2
			c-0.1,0.2-0.2,0.3-0.5,0.3s-0.5-0.2-0.5-0.5c0-0.2,0.1-0.4,0.3-0.5V5.1l-1-0.3l1.3-0.4L51.1,4l1.3-0.4l-1.3-0.4l1.3-0.4l-0.3-0.1
			V1.8c-0.2-0.1-0.3-0.2-0.3-0.5s0.2-0.5,0.5-0.5c0.2,0,0.4,0.1,0.5,0.3h1l0.4-0.9l0.5,1.3l0.5-1.3l0.5,1.3L56.3,0.2z"></path>
		<path id="Shape_5_" class="st2" d="M62.2,5v1h1.5c0.1,0,0.2,0,0.2,0.2v0.3c0,0.1,0,0.2-0.2,0.2h-1.5v2.6c0,1.2,0.4,1.4,1.5,1.4
			c0.1,0,0.2,0.1,0.2,0.2v0.3c0,0.1,0,0.2-0.2,0.2c-1.6,0-2.1-0.4-2.1-2.1V6.7h-1c-0.1,0-0.2,0-0.2-0.2V6.3c0-0.1,0-0.2,0.2-0.2h1V5
			c0-0.1,0.1-0.2,0.2-0.2H62C62.1,4.9,62.2,4.9,62.2,5z"></path>
		<path id="Shape_6_" class="st2" d="M68.9,6.3v4.3c0,0.3-0.1,0.4-0.4,0.6c-0.6,0.2-1.3,0.4-1.9,0.3c-1.4,0-2-0.7-2-2V6.3
			c0-0.1,0-0.2,0.2-0.2h0.3c0.1,0,0.2,0,0.2,0.2v3.2c-0.1,0.4,0.1,0.8,0.4,1.1s0.7,0.4,1.1,0.3c0.5,0,0.9-0.1,1.3-0.2
			c0.1,0,0.2-0.2,0.2-0.3v-4c0-0.1,0-0.2,0.2-0.2h0.3C68.8,6.1,68.9,6.1,68.9,6.3z"></path>
		<path id="Shape_7_" class="st2" d="M73.1,4v0.3c0,0.1,0,0.2-0.2,0.2c-1.1,0-1.5,0.3-1.5,1.4v0.3h1.5c0.1,0,0.2,0,0.2,0.2v0.3
			c0,0.1,0,0.2-0.2,0.2h-1.5v4.4c0,0.1,0,0.2-0.2,0.2h-0.3c-0.1,0-0.2,0-0.2-0.2V6.7h-0.9c-0.1,0-0.2,0-0.2-0.2V6.3
			c0-0.1,0-0.2,0.2-0.2h0.9V5.8c0-1.4,0.6-2,2.1-2h0.1C73,3.8,73.1,3.8,73.1,4z"></path>
		<path id="Shape_8_" class="st2" d="M76.7,4v0.3c0,0.1,0,0.2-0.2,0.2c-1.1,0-1.5,0.3-1.5,1.4v0.3h1.5c0.1,0,0.2,0,0.2,0.2v0.3
			c0,0.1,0,0.2-0.2,0.2H75v4.4c0,0.1,0,0.2-0.2,0.2h-0.3c-0.1,0-0.2,0-0.2-0.2V6.7h-0.9c-0.1,0-0.2,0-0.2-0.2V6.3
			c0-0.1,0-0.2,0.2-0.2h0.9V5.8c0-1.4,0.6-2,2.1-2h0.1C76.6,3.8,76.7,3.8,76.7,4z"></path>
	</g>
</g>
</svg>